ISO-10303-21;
HEADER;
/* Generated by software containing ST-Developer
 * from STEP Tools, Inc. (www.steptools.com) 
 */

FILE_DESCRIPTION(
/* description */ (''),
/* implementation_level */ '2;1');

FILE_NAME(
/* name */ 'shield RevA.step',
/* time_stamp */ '2025-04-15T14:32:16-04:00',
/* author */ (''),
/* organization */ (''),
/* preprocessor_version */ 'ST-DEVELOPER v20.1',
/* originating_system */ 'Autodesk Translation Framework v14.4.0.0',
/* authorisation */ '');

FILE_SCHEMA (('AUTOMOTIVE_DESIGN { 1 0 10303 214 3 1 1 }'));
ENDSEC;

DATA;
#10=MECHANICAL_DESIGN_GEOMETRIC_PRESENTATION_REPRESENTATION('',(#13),#905);
#11=SHAPE_REPRESENTATION_RELATIONSHIP('SRR','None',#911,#12);
#12=ADVANCED_BREP_SHAPE_REPRESENTATION('',(#14),#904);
#13=STYLED_ITEM('',(#921),#14);
#14=MANIFOLD_SOLID_BREP('Body3',#561);
#15=PLANE('',#566);
#16=PLANE('',#567);
#17=PLANE('',#573);
#18=PLANE('',#576);
#19=PLANE('',#579);
#20=PLANE('',#580);
#21=PLANE('',#581);
#22=PLANE('',#582);
#23=PLANE('',#583);
#24=PLANE('',#584);
#25=PLANE('',#585);
#26=PLANE('',#586);
#27=PLANE('',#587);
#28=PLANE('',#588);
#29=PLANE('',#589);
#30=PLANE('',#590);
#31=PLANE('',#591);
#32=PLANE('',#592);
#33=PLANE('',#593);
#34=PLANE('',#594);
#35=PLANE('',#595);
#36=PLANE('',#596);
#37=PLANE('',#597);
#38=PLANE('',#598);
#39=FACE_OUTER_BOUND('',#67,.T.);
#40=FACE_OUTER_BOUND('',#68,.T.);
#41=FACE_OUTER_BOUND('',#69,.T.);
#42=FACE_OUTER_BOUND('',#70,.T.);
#43=FACE_OUTER_BOUND('',#71,.T.);
#44=FACE_OUTER_BOUND('',#72,.T.);
#45=FACE_OUTER_BOUND('',#73,.T.);
#46=FACE_OUTER_BOUND('',#74,.T.);
#47=FACE_OUTER_BOUND('',#75,.T.);
#48=FACE_OUTER_BOUND('',#76,.T.);
#49=FACE_OUTER_BOUND('',#77,.T.);
#50=FACE_OUTER_BOUND('',#78,.T.);
#51=FACE_OUTER_BOUND('',#79,.T.);
#52=FACE_OUTER_BOUND('',#80,.T.);
#53=FACE_OUTER_BOUND('',#81,.T.);
#54=FACE_OUTER_BOUND('',#82,.T.);
#55=FACE_OUTER_BOUND('',#83,.T.);
#56=FACE_OUTER_BOUND('',#84,.T.);
#57=FACE_OUTER_BOUND('',#85,.T.);
#58=FACE_OUTER_BOUND('',#86,.T.);
#59=FACE_OUTER_BOUND('',#87,.T.);
#60=FACE_OUTER_BOUND('',#88,.T.);
#61=FACE_OUTER_BOUND('',#89,.T.);
#62=FACE_OUTER_BOUND('',#90,.T.);
#63=FACE_OUTER_BOUND('',#91,.T.);
#64=FACE_OUTER_BOUND('',#92,.T.);
#65=FACE_OUTER_BOUND('',#93,.T.);
#66=FACE_OUTER_BOUND('',#94,.T.);
#67=EDGE_LOOP('',(#373,#374,#375,#376));
#68=EDGE_LOOP('',(#377,#378,#379,#380));
#69=EDGE_LOOP('',(#381,#382,#383,#384,#385,#386,#387,#388,#389,#390,#391,
#392,#393,#394,#395,#396));
#70=EDGE_LOOP('',(#397,#398,#399,#400));
#71=EDGE_LOOP('',(#401,#402,#403,#404));
#72=EDGE_LOOP('',(#405,#406,#407,#408));
#73=EDGE_LOOP('',(#409,#410,#411,#412,#413,#414));
#74=EDGE_LOOP('',(#415,#416,#417,#418));
#75=EDGE_LOOP('',(#419,#420,#421,#422));
#76=EDGE_LOOP('',(#423,#424,#425,#426));
#77=EDGE_LOOP('',(#427,#428,#429,#430));
#78=EDGE_LOOP('',(#431,#432,#433,#434));
#79=EDGE_LOOP('',(#435,#436,#437,#438,#439,#440,#441,#442,#443,#444,#445,
#446));
#80=EDGE_LOOP('',(#447,#448,#449,#450));
#81=EDGE_LOOP('',(#451,#452,#453,#454));
#82=EDGE_LOOP('',(#455,#456,#457,#458));
#83=EDGE_LOOP('',(#459,#460,#461,#462,#463,#464,#465,#466));
#84=EDGE_LOOP('',(#467,#468,#469,#470));
#85=EDGE_LOOP('',(#471,#472,#473,#474));
#86=EDGE_LOOP('',(#475,#476,#477,#478));
#87=EDGE_LOOP('',(#479,#480,#481,#482));
#88=EDGE_LOOP('',(#483,#484,#485,#486,#487,#488,#489,#490,#491,#492,#493,
#494,#495,#496,#497,#498,#499,#500));
#89=EDGE_LOOP('',(#501,#502,#503,#504));
#90=EDGE_LOOP('',(#505,#506,#507,#508));
#91=EDGE_LOOP('',(#509,#510,#511,#512));
#92=EDGE_LOOP('',(#513,#514,#515,#516));
#93=EDGE_LOOP('',(#517,#518,#519,#520));
#94=EDGE_LOOP('',(#521,#522,#523,#524,#525,#526,#527,#528));
#95=LINE('',#749,#165);
#96=LINE('',#752,#166);
#97=LINE('',#755,#167);
#98=LINE('',#757,#168);
#99=LINE('',#758,#169);
#100=LINE('',#761,#170);
#101=LINE('',#765,#171);
#102=LINE('',#769,#172);
#103=LINE('',#773,#173);
#104=LINE('',#775,#174);
#105=LINE('',#777,#175);
#106=LINE('',#779,#176);
#107=LINE('',#781,#177);
#108=LINE('',#783,#178);
#109=LINE('',#785,#179);
#110=LINE('',#786,#180);
#111=LINE('',#791,#181);
#112=LINE('',#792,#182);
#113=LINE('',#795,#183);
#114=LINE('',#796,#184);
#115=LINE('',#799,#185);
#116=LINE('',#803,#186);
#117=LINE('',#805,#187);
#118=LINE('',#807,#188);
#119=LINE('',#808,#189);
#120=LINE('',#812,#190);
#121=LINE('',#814,#191);
#122=LINE('',#818,#192);
#123=LINE('',#819,#193);
#124=LINE('',#820,#194);
#125=LINE('',#823,#195);
#126=LINE('',#824,#196);
#127=LINE('',#827,#197);
#128=LINE('',#828,#198);
#129=LINE('',#831,#199);
#130=LINE('',#833,#200);
#131=LINE('',#835,#201);
#132=LINE('',#837,#202);
#133=LINE('',#839,#203);
#134=LINE('',#841,#204);
#135=LINE('',#843,#205);
#136=LINE('',#845,#206);
#137=LINE('',#846,#207);
#138=LINE('',#849,#208);
#139=LINE('',#851,#209);
#140=LINE('',#852,#210);
#141=LINE('',#854,#211);
#142=LINE('',#857,#212);
#143=LINE('',#858,#213);
#144=LINE('',#861,#214);
#145=LINE('',#862,#215);
#146=LINE('',#865,#216);
#147=LINE('',#867,#217);
#148=LINE('',#868,#218);
#149=LINE('',#871,#219);
#150=LINE('',#873,#220);
#151=LINE('',#874,#221);
#152=LINE('',#876,#222);
#153=LINE('',#877,#223);
#154=LINE('',#881,#224);
#155=LINE('',#883,#225);
#156=LINE('',#884,#226);
#157=LINE('',#886,#227);
#158=LINE('',#887,#228);
#159=LINE('',#890,#229);
#160=LINE('',#891,#230);
#161=LINE('',#894,#231);
#162=LINE('',#895,#232);
#163=LINE('',#897,#233);
#164=LINE('',#900,#234);
#165=VECTOR('',#605,10.);
#166=VECTOR('',#608,10.);
#167=VECTOR('',#611,10.);
#168=VECTOR('',#612,10.);
#169=VECTOR('',#613,10.);
#170=VECTOR('',#616,10.);
#171=VECTOR('',#619,10.);
#172=VECTOR('',#622,10.);
#173=VECTOR('',#625,10.);
#174=VECTOR('',#626,10.);
#175=VECTOR('',#627,10.);
#176=VECTOR('',#628,10.);
#177=VECTOR('',#629,10.);
#178=VECTOR('',#630,10.);
#179=VECTOR('',#631,10.);
#180=VECTOR('',#632,10.);
#181=VECTOR('',#637,10.);
#182=VECTOR('',#638,10.);
#183=VECTOR('',#641,10.);
#184=VECTOR('',#642,10.);
#185=VECTOR('',#645,10.);
#186=VECTOR('',#650,10.);
#187=VECTOR('',#651,10.);
#188=VECTOR('',#652,10.);
#189=VECTOR('',#653,10.);
#190=VECTOR('',#658,10.);
#191=VECTOR('',#661,10.);
#192=VECTOR('',#664,10.);
#193=VECTOR('',#665,10.);
#194=VECTOR('',#666,10.);
#195=VECTOR('',#669,10.);
#196=VECTOR('',#670,10.);
#197=VECTOR('',#673,10.);
#198=VECTOR('',#674,10.);
#199=VECTOR('',#677,10.);
#200=VECTOR('',#678,10.);
#201=VECTOR('',#679,10.);
#202=VECTOR('',#680,10.);
#203=VECTOR('',#681,10.);
#204=VECTOR('',#682,10.);
#205=VECTOR('',#683,10.);
#206=VECTOR('',#684,10.);
#207=VECTOR('',#685,10.);
#208=VECTOR('',#688,10.);
#209=VECTOR('',#689,10.);
#210=VECTOR('',#690,10.);
#211=VECTOR('',#693,10.);
#212=VECTOR('',#696,10.);
#213=VECTOR('',#697,10.);
#214=VECTOR('',#700,10.);
#215=VECTOR('',#701,10.);
#216=VECTOR('',#704,10.);
#217=VECTOR('',#705,10.);
#218=VECTOR('',#706,10.);
#219=VECTOR('',#709,10.);
#220=VECTOR('',#710,10.);
#221=VECTOR('',#711,10.);
#222=VECTOR('',#714,10.);
#223=VECTOR('',#715,10.);
#224=VECTOR('',#720,10.);
#225=VECTOR('',#721,10.);
#226=VECTOR('',#722,10.);
#227=VECTOR('',#723,10.);
#228=VECTOR('',#724,10.);
#229=VECTOR('',#727,10.);
#230=VECTOR('',#728,10.);
#231=VECTOR('',#731,10.);
#232=VECTOR('',#732,10.);
#233=VECTOR('',#735,10.);
#234=VECTOR('',#740,10.);
#235=CIRCLE('',#564,0.5);
#236=CIRCLE('',#565,0.5);
#237=CIRCLE('',#568,0.5);
#238=CIRCLE('',#569,0.5);
#239=CIRCLE('',#570,0.5);
#240=CIRCLE('',#572,0.5);
#241=CIRCLE('',#575,0.5);
#242=CIRCLE('',#578,0.5);
#243=VERTEX_POINT('',#745);
#244=VERTEX_POINT('',#746);
#245=VERTEX_POINT('',#748);
#246=VERTEX_POINT('',#750);
#247=VERTEX_POINT('',#754);
#248=VERTEX_POINT('',#756);
#249=VERTEX_POINT('',#760);
#250=VERTEX_POINT('',#762);
#251=VERTEX_POINT('',#764);
#252=VERTEX_POINT('',#766);
#253=VERTEX_POINT('',#768);
#254=VERTEX_POINT('',#770);
#255=VERTEX_POINT('',#772);
#256=VERTEX_POINT('',#774);
#257=VERTEX_POINT('',#776);
#258=VERTEX_POINT('',#778);
#259=VERTEX_POINT('',#780);
#260=VERTEX_POINT('',#782);
#261=VERTEX_POINT('',#784);
#262=VERTEX_POINT('',#788);
#263=VERTEX_POINT('',#789);
#264=VERTEX_POINT('',#794);
#265=VERTEX_POINT('',#798);
#266=VERTEX_POINT('',#802);
#267=VERTEX_POINT('',#804);
#268=VERTEX_POINT('',#806);
#269=VERTEX_POINT('',#810);
#270=VERTEX_POINT('',#816);
#271=VERTEX_POINT('',#817);
#272=VERTEX_POINT('',#822);
#273=VERTEX_POINT('',#826);
#274=VERTEX_POINT('',#830);
#275=VERTEX_POINT('',#832);
#276=VERTEX_POINT('',#834);
#277=VERTEX_POINT('',#836);
#278=VERTEX_POINT('',#838);
#279=VERTEX_POINT('',#840);
#280=VERTEX_POINT('',#842);
#281=VERTEX_POINT('',#844);
#282=VERTEX_POINT('',#848);
#283=VERTEX_POINT('',#850);
#284=VERTEX_POINT('',#856);
#285=VERTEX_POINT('',#860);
#286=VERTEX_POINT('',#864);
#287=VERTEX_POINT('',#866);
#288=VERTEX_POINT('',#870);
#289=VERTEX_POINT('',#872);
#290=VERTEX_POINT('',#880);
#291=VERTEX_POINT('',#882);
#292=VERTEX_POINT('',#885);
#293=VERTEX_POINT('',#889);
#294=VERTEX_POINT('',#893);
#295=EDGE_CURVE('',#243,#244,#235,.T.);
#296=EDGE_CURVE('',#244,#245,#95,.T.);
#297=EDGE_CURVE('',#245,#246,#236,.T.);
#298=EDGE_CURVE('',#246,#243,#96,.T.);
#299=EDGE_CURVE('',#244,#247,#97,.T.);
#300=EDGE_CURVE('',#247,#248,#98,.T.);
#301=EDGE_CURVE('',#248,#245,#99,.T.);
#302=EDGE_CURVE('',#249,#243,#100,.T.);
#303=EDGE_CURVE('',#250,#249,#237,.T.);
#304=EDGE_CURVE('',#251,#250,#101,.T.);
#305=EDGE_CURVE('',#252,#251,#238,.T.);
#306=EDGE_CURVE('',#253,#252,#102,.T.);
#307=EDGE_CURVE('',#254,#253,#239,.T.);
#308=EDGE_CURVE('',#255,#254,#103,.T.);
#309=EDGE_CURVE('',#256,#255,#104,.T.);
#310=EDGE_CURVE('',#257,#256,#105,.T.);
#311=EDGE_CURVE('',#258,#257,#106,.T.);
#312=EDGE_CURVE('',#259,#258,#107,.T.);
#313=EDGE_CURVE('',#260,#259,#108,.T.);
#314=EDGE_CURVE('',#261,#260,#109,.T.);
#315=EDGE_CURVE('',#247,#261,#110,.T.);
#316=EDGE_CURVE('',#262,#263,#240,.T.);
#317=EDGE_CURVE('',#263,#254,#111,.T.);
#318=EDGE_CURVE('',#253,#262,#112,.T.);
#319=EDGE_CURVE('',#264,#252,#113,.T.);
#320=EDGE_CURVE('',#264,#262,#114,.T.);
#321=EDGE_CURVE('',#251,#265,#115,.T.);
#322=EDGE_CURVE('',#265,#264,#241,.T.);
#323=EDGE_CURVE('',#266,#250,#116,.T.);
#324=EDGE_CURVE('',#266,#267,#117,.T.);
#325=EDGE_CURVE('',#267,#268,#118,.T.);
#326=EDGE_CURVE('',#268,#265,#119,.T.);
#327=EDGE_CURVE('',#269,#266,#242,.T.);
#328=EDGE_CURVE('',#249,#269,#120,.T.);
#329=EDGE_CURVE('',#269,#246,#121,.T.);
#330=EDGE_CURVE('',#270,#271,#122,.T.);
#331=EDGE_CURVE('',#270,#258,#123,.T.);
#332=EDGE_CURVE('',#271,#257,#124,.T.);
#333=EDGE_CURVE('',#272,#270,#125,.T.);
#334=EDGE_CURVE('',#272,#259,#126,.T.);
#335=EDGE_CURVE('',#273,#272,#127,.T.);
#336=EDGE_CURVE('',#273,#260,#128,.T.);
#337=EDGE_CURVE('',#274,#273,#129,.T.);
#338=EDGE_CURVE('',#271,#275,#130,.T.);
#339=EDGE_CURVE('',#275,#276,#131,.T.);
#340=EDGE_CURVE('',#277,#276,#132,.T.);
#341=EDGE_CURVE('',#278,#277,#133,.T.);
#342=EDGE_CURVE('',#278,#279,#134,.T.);
#343=EDGE_CURVE('',#279,#280,#135,.T.);
#344=EDGE_CURVE('',#281,#280,#136,.T.);
#345=EDGE_CURVE('',#274,#281,#137,.T.);
#346=EDGE_CURVE('',#282,#255,#138,.T.);
#347=EDGE_CURVE('',#283,#282,#139,.T.);
#348=EDGE_CURVE('',#256,#283,#140,.T.);
#349=EDGE_CURVE('',#263,#282,#141,.T.);
#350=EDGE_CURVE('',#284,#261,#142,.T.);
#351=EDGE_CURVE('',#284,#248,#143,.T.);
#352=EDGE_CURVE('',#285,#268,#144,.T.);
#353=EDGE_CURVE('',#285,#283,#145,.T.);
#354=EDGE_CURVE('',#274,#286,#146,.T.);
#355=EDGE_CURVE('',#287,#281,#147,.T.);
#356=EDGE_CURVE('',#286,#287,#148,.T.);
#357=EDGE_CURVE('',#286,#288,#149,.T.);
#358=EDGE_CURVE('',#289,#287,#150,.T.);
#359=EDGE_CURVE('',#288,#289,#151,.T.);
#360=EDGE_CURVE('',#288,#279,#152,.T.);
#361=EDGE_CURVE('',#280,#289,#153,.T.);
#362=EDGE_CURVE('',#278,#290,#154,.T.);
#363=EDGE_CURVE('',#290,#291,#155,.T.);
#364=EDGE_CURVE('',#291,#275,#156,.T.);
#365=EDGE_CURVE('',#285,#292,#157,.T.);
#366=EDGE_CURVE('',#284,#292,#158,.T.);
#367=EDGE_CURVE('',#291,#293,#159,.T.);
#368=EDGE_CURVE('',#276,#293,#160,.T.);
#369=EDGE_CURVE('',#294,#277,#161,.T.);
#370=EDGE_CURVE('',#290,#294,#162,.T.);
#371=EDGE_CURVE('',#293,#294,#163,.T.);
#372=EDGE_CURVE('',#292,#267,#164,.T.);
#373=ORIENTED_EDGE('',*,*,#295,.T.);
#374=ORIENTED_EDGE('',*,*,#296,.T.);
#375=ORIENTED_EDGE('',*,*,#297,.T.);
#376=ORIENTED_EDGE('',*,*,#298,.T.);
#377=ORIENTED_EDGE('',*,*,#296,.F.);
#378=ORIENTED_EDGE('',*,*,#299,.T.);
#379=ORIENTED_EDGE('',*,*,#300,.T.);
#380=ORIENTED_EDGE('',*,*,#301,.T.);
#381=ORIENTED_EDGE('',*,*,#295,.F.);
#382=ORIENTED_EDGE('',*,*,#302,.F.);
#383=ORIENTED_EDGE('',*,*,#303,.F.);
#384=ORIENTED_EDGE('',*,*,#304,.F.);
#385=ORIENTED_EDGE('',*,*,#305,.F.);
#386=ORIENTED_EDGE('',*,*,#306,.F.);
#387=ORIENTED_EDGE('',*,*,#307,.F.);
#388=ORIENTED_EDGE('',*,*,#308,.F.);
#389=ORIENTED_EDGE('',*,*,#309,.F.);
#390=ORIENTED_EDGE('',*,*,#310,.F.);
#391=ORIENTED_EDGE('',*,*,#311,.F.);
#392=ORIENTED_EDGE('',*,*,#312,.F.);
#393=ORIENTED_EDGE('',*,*,#313,.F.);
#394=ORIENTED_EDGE('',*,*,#314,.F.);
#395=ORIENTED_EDGE('',*,*,#315,.F.);
#396=ORIENTED_EDGE('',*,*,#299,.F.);
#397=ORIENTED_EDGE('',*,*,#316,.T.);
#398=ORIENTED_EDGE('',*,*,#317,.T.);
#399=ORIENTED_EDGE('',*,*,#307,.T.);
#400=ORIENTED_EDGE('',*,*,#318,.T.);
#401=ORIENTED_EDGE('',*,*,#318,.F.);
#402=ORIENTED_EDGE('',*,*,#306,.T.);
#403=ORIENTED_EDGE('',*,*,#319,.F.);
#404=ORIENTED_EDGE('',*,*,#320,.T.);
#405=ORIENTED_EDGE('',*,*,#305,.T.);
#406=ORIENTED_EDGE('',*,*,#321,.T.);
#407=ORIENTED_EDGE('',*,*,#322,.T.);
#408=ORIENTED_EDGE('',*,*,#319,.T.);
#409=ORIENTED_EDGE('',*,*,#321,.F.);
#410=ORIENTED_EDGE('',*,*,#304,.T.);
#411=ORIENTED_EDGE('',*,*,#323,.F.);
#412=ORIENTED_EDGE('',*,*,#324,.T.);
#413=ORIENTED_EDGE('',*,*,#325,.T.);
#414=ORIENTED_EDGE('',*,*,#326,.T.);
#415=ORIENTED_EDGE('',*,*,#327,.T.);
#416=ORIENTED_EDGE('',*,*,#323,.T.);
#417=ORIENTED_EDGE('',*,*,#303,.T.);
#418=ORIENTED_EDGE('',*,*,#328,.T.);
#419=ORIENTED_EDGE('',*,*,#298,.F.);
#420=ORIENTED_EDGE('',*,*,#329,.F.);
#421=ORIENTED_EDGE('',*,*,#328,.F.);
#422=ORIENTED_EDGE('',*,*,#302,.T.);
#423=ORIENTED_EDGE('',*,*,#330,.F.);
#424=ORIENTED_EDGE('',*,*,#331,.T.);
#425=ORIENTED_EDGE('',*,*,#311,.T.);
#426=ORIENTED_EDGE('',*,*,#332,.F.);
#427=ORIENTED_EDGE('',*,*,#333,.F.);
#428=ORIENTED_EDGE('',*,*,#334,.T.);
#429=ORIENTED_EDGE('',*,*,#312,.T.);
#430=ORIENTED_EDGE('',*,*,#331,.F.);
#431=ORIENTED_EDGE('',*,*,#335,.F.);
#432=ORIENTED_EDGE('',*,*,#336,.T.);
#433=ORIENTED_EDGE('',*,*,#313,.T.);
#434=ORIENTED_EDGE('',*,*,#334,.F.);
#435=ORIENTED_EDGE('',*,*,#337,.T.);
#436=ORIENTED_EDGE('',*,*,#335,.T.);
#437=ORIENTED_EDGE('',*,*,#333,.T.);
#438=ORIENTED_EDGE('',*,*,#330,.T.);
#439=ORIENTED_EDGE('',*,*,#338,.T.);
#440=ORIENTED_EDGE('',*,*,#339,.T.);
#441=ORIENTED_EDGE('',*,*,#340,.F.);
#442=ORIENTED_EDGE('',*,*,#341,.F.);
#443=ORIENTED_EDGE('',*,*,#342,.T.);
#444=ORIENTED_EDGE('',*,*,#343,.T.);
#445=ORIENTED_EDGE('',*,*,#344,.F.);
#446=ORIENTED_EDGE('',*,*,#345,.F.);
#447=ORIENTED_EDGE('',*,*,#309,.T.);
#448=ORIENTED_EDGE('',*,*,#346,.F.);
#449=ORIENTED_EDGE('',*,*,#347,.F.);
#450=ORIENTED_EDGE('',*,*,#348,.F.);
#451=ORIENTED_EDGE('',*,*,#317,.F.);
#452=ORIENTED_EDGE('',*,*,#349,.T.);
#453=ORIENTED_EDGE('',*,*,#346,.T.);
#454=ORIENTED_EDGE('',*,*,#308,.T.);
#455=ORIENTED_EDGE('',*,*,#315,.T.);
#456=ORIENTED_EDGE('',*,*,#350,.F.);
#457=ORIENTED_EDGE('',*,*,#351,.T.);
#458=ORIENTED_EDGE('',*,*,#300,.F.);
#459=ORIENTED_EDGE('',*,*,#316,.F.);
#460=ORIENTED_EDGE('',*,*,#320,.F.);
#461=ORIENTED_EDGE('',*,*,#322,.F.);
#462=ORIENTED_EDGE('',*,*,#326,.F.);
#463=ORIENTED_EDGE('',*,*,#352,.F.);
#464=ORIENTED_EDGE('',*,*,#353,.T.);
#465=ORIENTED_EDGE('',*,*,#347,.T.);
#466=ORIENTED_EDGE('',*,*,#349,.F.);
#467=ORIENTED_EDGE('',*,*,#354,.F.);
#468=ORIENTED_EDGE('',*,*,#345,.T.);
#469=ORIENTED_EDGE('',*,*,#355,.F.);
#470=ORIENTED_EDGE('',*,*,#356,.F.);
#471=ORIENTED_EDGE('',*,*,#357,.F.);
#472=ORIENTED_EDGE('',*,*,#356,.T.);
#473=ORIENTED_EDGE('',*,*,#358,.F.);
#474=ORIENTED_EDGE('',*,*,#359,.F.);
#475=ORIENTED_EDGE('',*,*,#360,.F.);
#476=ORIENTED_EDGE('',*,*,#359,.T.);
#477=ORIENTED_EDGE('',*,*,#361,.F.);
#478=ORIENTED_EDGE('',*,*,#343,.F.);
#479=ORIENTED_EDGE('',*,*,#361,.T.);
#480=ORIENTED_EDGE('',*,*,#358,.T.);
#481=ORIENTED_EDGE('',*,*,#355,.T.);
#482=ORIENTED_EDGE('',*,*,#344,.T.);
#483=ORIENTED_EDGE('',*,*,#350,.T.);
#484=ORIENTED_EDGE('',*,*,#314,.T.);
#485=ORIENTED_EDGE('',*,*,#336,.F.);
#486=ORIENTED_EDGE('',*,*,#337,.F.);
#487=ORIENTED_EDGE('',*,*,#354,.T.);
#488=ORIENTED_EDGE('',*,*,#357,.T.);
#489=ORIENTED_EDGE('',*,*,#360,.T.);
#490=ORIENTED_EDGE('',*,*,#342,.F.);
#491=ORIENTED_EDGE('',*,*,#362,.T.);
#492=ORIENTED_EDGE('',*,*,#363,.T.);
#493=ORIENTED_EDGE('',*,*,#364,.T.);
#494=ORIENTED_EDGE('',*,*,#338,.F.);
#495=ORIENTED_EDGE('',*,*,#332,.T.);
#496=ORIENTED_EDGE('',*,*,#310,.T.);
#497=ORIENTED_EDGE('',*,*,#348,.T.);
#498=ORIENTED_EDGE('',*,*,#353,.F.);
#499=ORIENTED_EDGE('',*,*,#365,.T.);
#500=ORIENTED_EDGE('',*,*,#366,.F.);
#501=ORIENTED_EDGE('',*,*,#364,.F.);
#502=ORIENTED_EDGE('',*,*,#367,.T.);
#503=ORIENTED_EDGE('',*,*,#368,.F.);
#504=ORIENTED_EDGE('',*,*,#339,.F.);
#505=ORIENTED_EDGE('',*,*,#362,.F.);
#506=ORIENTED_EDGE('',*,*,#341,.T.);
#507=ORIENTED_EDGE('',*,*,#369,.F.);
#508=ORIENTED_EDGE('',*,*,#370,.F.);
#509=ORIENTED_EDGE('',*,*,#363,.F.);
#510=ORIENTED_EDGE('',*,*,#370,.T.);
#511=ORIENTED_EDGE('',*,*,#371,.F.);
#512=ORIENTED_EDGE('',*,*,#367,.F.);
#513=ORIENTED_EDGE('',*,*,#371,.T.);
#514=ORIENTED_EDGE('',*,*,#369,.T.);
#515=ORIENTED_EDGE('',*,*,#340,.T.);
#516=ORIENTED_EDGE('',*,*,#368,.T.);
#517=ORIENTED_EDGE('',*,*,#352,.T.);
#518=ORIENTED_EDGE('',*,*,#325,.F.);
#519=ORIENTED_EDGE('',*,*,#372,.F.);
#520=ORIENTED_EDGE('',*,*,#365,.F.);
#521=ORIENTED_EDGE('',*,*,#297,.F.);
#522=ORIENTED_EDGE('',*,*,#301,.F.);
#523=ORIENTED_EDGE('',*,*,#351,.F.);
#524=ORIENTED_EDGE('',*,*,#366,.T.);
#525=ORIENTED_EDGE('',*,*,#372,.T.);
#526=ORIENTED_EDGE('',*,*,#324,.F.);
#527=ORIENTED_EDGE('',*,*,#327,.F.);
#528=ORIENTED_EDGE('',*,*,#329,.T.);
#529=CYLINDRICAL_SURFACE('',#563,0.5);
#530=CYLINDRICAL_SURFACE('',#571,0.5);
#531=CYLINDRICAL_SURFACE('',#574,0.5);
#532=CYLINDRICAL_SURFACE('',#577,0.5);
#533=ADVANCED_FACE('',(#39),#529,.T.);
#534=ADVANCED_FACE('',(#40),#15,.T.);
#535=ADVANCED_FACE('',(#41),#16,.F.);
#536=ADVANCED_FACE('',(#42),#530,.T.);
#537=ADVANCED_FACE('',(#43),#17,.T.);
#538=ADVANCED_FACE('',(#44),#531,.T.);
#539=ADVANCED_FACE('',(#45),#18,.T.);
#540=ADVANCED_FACE('',(#46),#532,.T.);
#541=ADVANCED_FACE('',(#47),#19,.T.);
#542=ADVANCED_FACE('',(#48),#20,.F.);
#543=ADVANCED_FACE('',(#49),#21,.F.);
#544=ADVANCED_FACE('',(#50),#22,.F.);
#545=ADVANCED_FACE('',(#51),#23,.T.);
#546=ADVANCED_FACE('',(#52),#24,.T.);
#547=ADVANCED_FACE('',(#53),#25,.T.);
#548=ADVANCED_FACE('',(#54),#26,.T.);
#549=ADVANCED_FACE('',(#55),#27,.T.);
#550=ADVANCED_FACE('',(#56),#28,.T.);
#551=ADVANCED_FACE('',(#57),#29,.T.);
#552=ADVANCED_FACE('',(#58),#30,.T.);
#553=ADVANCED_FACE('',(#59),#31,.T.);
#554=ADVANCED_FACE('',(#60),#32,.T.);
#555=ADVANCED_FACE('',(#61),#33,.T.);
#556=ADVANCED_FACE('',(#62),#34,.T.);
#557=ADVANCED_FACE('',(#63),#35,.T.);
#558=ADVANCED_FACE('',(#64),#36,.T.);
#559=ADVANCED_FACE('',(#65),#37,.T.);
#560=ADVANCED_FACE('',(#66),#38,.T.);
#561=CLOSED_SHELL('',(#533,#534,#535,#536,#537,#538,#539,#540,#541,#542,
#543,#544,#545,#546,#547,#548,#549,#550,#551,#552,#553,#554,#555,#556,#557,
#558,#559,#560));
#562=AXIS2_PLACEMENT_3D('',#743,#599,#600);
#563=AXIS2_PLACEMENT_3D('',#744,#601,#602);
#564=AXIS2_PLACEMENT_3D('',#747,#603,#604);
#565=AXIS2_PLACEMENT_3D('',#751,#606,#607);
#566=AXIS2_PLACEMENT_3D('',#753,#609,#610);
#567=AXIS2_PLACEMENT_3D('',#759,#614,#615);
#568=AXIS2_PLACEMENT_3D('',#763,#617,#618);
#569=AXIS2_PLACEMENT_3D('',#767,#620,#621);
#570=AXIS2_PLACEMENT_3D('',#771,#623,#624);
#571=AXIS2_PLACEMENT_3D('',#787,#633,#634);
#572=AXIS2_PLACEMENT_3D('',#790,#635,#636);
#573=AXIS2_PLACEMENT_3D('',#793,#639,#640);
#574=AXIS2_PLACEMENT_3D('',#797,#643,#644);
#575=AXIS2_PLACEMENT_3D('',#800,#646,#647);
#576=AXIS2_PLACEMENT_3D('',#801,#648,#649);
#577=AXIS2_PLACEMENT_3D('',#809,#654,#655);
#578=AXIS2_PLACEMENT_3D('',#811,#656,#657);
#579=AXIS2_PLACEMENT_3D('',#813,#659,#660);
#580=AXIS2_PLACEMENT_3D('',#815,#662,#663);
#581=AXIS2_PLACEMENT_3D('',#821,#667,#668);
#582=AXIS2_PLACEMENT_3D('',#825,#671,#672);
#583=AXIS2_PLACEMENT_3D('',#829,#675,#676);
#584=AXIS2_PLACEMENT_3D('',#847,#686,#687);
#585=AXIS2_PLACEMENT_3D('',#853,#691,#692);
#586=AXIS2_PLACEMENT_3D('',#855,#694,#695);
#587=AXIS2_PLACEMENT_3D('',#859,#698,#699);
#588=AXIS2_PLACEMENT_3D('',#863,#702,#703);
#589=AXIS2_PLACEMENT_3D('',#869,#707,#708);
#590=AXIS2_PLACEMENT_3D('',#875,#712,#713);
#591=AXIS2_PLACEMENT_3D('',#878,#716,#717);
#592=AXIS2_PLACEMENT_3D('',#879,#718,#719);
#593=AXIS2_PLACEMENT_3D('',#888,#725,#726);
#594=AXIS2_PLACEMENT_3D('',#892,#729,#730);
#595=AXIS2_PLACEMENT_3D('',#896,#733,#734);
#596=AXIS2_PLACEMENT_3D('',#898,#736,#737);
#597=AXIS2_PLACEMENT_3D('',#899,#738,#739);
#598=AXIS2_PLACEMENT_3D('',#901,#741,#742);
#599=DIRECTION('axis',(0.,0.,1.));
#600=DIRECTION('refdir',(1.,0.,0.));
#601=DIRECTION('center_axis',(1.,0.,0.));
#602=DIRECTION('ref_axis',(0.,-0.707106781186554,0.707106781186541));
#603=DIRECTION('center_axis',(-1.,0.,0.));
#604=DIRECTION('ref_axis',(0.,-0.707106781186554,0.707106781186541));
#605=DIRECTION('',(-1.,0.,0.));
#606=DIRECTION('center_axis',(1.,0.,0.));
#607=DIRECTION('ref_axis',(0.,-0.707106781186554,0.707106781186541));
#608=DIRECTION('',(1.,0.,0.));
#609=DIRECTION('center_axis',(0.,0.,1.));
#610=DIRECTION('ref_axis',(1.,0.,0.));
#611=DIRECTION('',(0.,1.,0.));
#612=DIRECTION('',(-1.,0.,0.));
#613=DIRECTION('',(0.,-1.,0.));
#614=DIRECTION('center_axis',(-1.,0.,0.));
#615=DIRECTION('ref_axis',(0.,0.,1.));
#616=DIRECTION('',(0.,0.,1.));
#617=DIRECTION('center_axis',(-1.,0.,0.));
#618=DIRECTION('ref_axis',(0.,-0.707106781186554,-0.707106781186541));
#619=DIRECTION('',(0.,-1.,0.));
#620=DIRECTION('center_axis',(-1.,0.,0.));
#621=DIRECTION('ref_axis',(0.,0.707106781186554,-0.707106781186541));
#622=DIRECTION('',(0.,0.,-1.));
#623=DIRECTION('center_axis',(-1.,0.,0.));
#624=DIRECTION('ref_axis',(0.,0.707106781186554,0.707106781186541));
#625=DIRECTION('',(0.,1.,0.));
#626=DIRECTION('',(0.,0.,1.));
#627=DIRECTION('',(0.,-1.,4.90244617786778E-17));
#628=DIRECTION('',(0.,0.,1.));
#629=DIRECTION('',(0.,1.,0.));
#630=DIRECTION('',(0.,0.,-1.));
#631=DIRECTION('',(0.,-1.,0.));
#632=DIRECTION('',(0.,0.,-1.));
#633=DIRECTION('center_axis',(-1.,0.,0.));
#634=DIRECTION('ref_axis',(0.,0.707106781186554,0.707106781186541));
#635=DIRECTION('center_axis',(1.,0.,0.));
#636=DIRECTION('ref_axis',(0.,0.707106781186554,0.707106781186541));
#637=DIRECTION('',(1.,0.,0.));
#638=DIRECTION('',(-1.,0.,0.));
#639=DIRECTION('center_axis',(0.,1.,0.));
#640=DIRECTION('ref_axis',(1.,0.,0.));
#641=DIRECTION('',(1.,0.,0.));
#642=DIRECTION('',(0.,0.,1.));
#643=DIRECTION('center_axis',(1.,0.,0.));
#644=DIRECTION('ref_axis',(0.,0.707106781186554,-0.707106781186541));
#645=DIRECTION('',(-1.,0.,0.));
#646=DIRECTION('center_axis',(1.,0.,0.));
#647=DIRECTION('ref_axis',(0.,0.707106781186554,-0.707106781186541));
#648=DIRECTION('center_axis',(0.,0.,-1.));
#649=DIRECTION('ref_axis',(-1.,0.,0.));
#650=DIRECTION('',(1.,0.,0.));
#651=DIRECTION('',(0.,1.,0.));
#652=DIRECTION('',(1.,0.,0.));
#653=DIRECTION('',(0.,1.,0.));
#654=DIRECTION('center_axis',(-1.,0.,0.));
#655=DIRECTION('ref_axis',(0.,-0.707106781186554,-0.707106781186541));
#656=DIRECTION('center_axis',(1.,0.,0.));
#657=DIRECTION('ref_axis',(0.,-0.707106781186554,-0.707106781186541));
#658=DIRECTION('',(-1.,0.,0.));
#659=DIRECTION('center_axis',(0.,-1.,0.));
#660=DIRECTION('ref_axis',(-1.,0.,0.));
#661=DIRECTION('',(0.,0.,1.));
#662=DIRECTION('center_axis',(0.,-1.,0.));
#663=DIRECTION('ref_axis',(0.,0.,1.));
#664=DIRECTION('',(0.,0.,1.));
#665=DIRECTION('',(-1.,0.,0.));
#666=DIRECTION('',(-1.,0.,0.));
#667=DIRECTION('center_axis',(0.,0.,1.));
#668=DIRECTION('ref_axis',(0.,1.,0.));
#669=DIRECTION('',(0.,1.,0.));
#670=DIRECTION('',(-1.,0.,0.));
#671=DIRECTION('center_axis',(0.,1.,0.));
#672=DIRECTION('ref_axis',(0.,0.,-1.));
#673=DIRECTION('',(0.,0.,-1.));
#674=DIRECTION('',(-1.,0.,0.));
#675=DIRECTION('center_axis',(1.,0.,0.));
#676=DIRECTION('ref_axis',(0.,-1.,0.));
#677=DIRECTION('',(0.,-1.,0.));
#678=DIRECTION('',(0.,-1.,0.));
#679=DIRECTION('',(0.,0.,1.));
#680=DIRECTION('',(0.,1.,0.));
#681=DIRECTION('',(0.,0.,1.));
#682=DIRECTION('',(0.,-1.,0.));
#683=DIRECTION('',(0.,0.,1.));
#684=DIRECTION('',(9.86864910777962E-15,1.,0.));
#685=DIRECTION('',(0.,0.,1.));
#686=DIRECTION('center_axis',(-1.22511408879263E-14,-1.,0.));
#687=DIRECTION('ref_axis',(1.,-1.22511408879263E-14,0.));
#688=DIRECTION('',(1.,-1.22511408879263E-14,0.));
#689=DIRECTION('',(0.,0.,1.));
#690=DIRECTION('',(-1.,1.22511408879263E-14,0.));
#691=DIRECTION('center_axis',(0.,0.,1.));
#692=DIRECTION('ref_axis',(1.,0.,0.));
#693=DIRECTION('',(0.,-1.,0.));
#694=DIRECTION('center_axis',(0.,1.,0.));
#695=DIRECTION('ref_axis',(-1.,0.,0.));
#696=DIRECTION('',(1.,0.,0.));
#697=DIRECTION('',(0.,0.,1.));
#698=DIRECTION('center_axis',(-1.,0.,0.));
#699=DIRECTION('ref_axis',(0.,1.,0.));
#700=DIRECTION('',(0.,0.,-1.));
#701=DIRECTION('',(0.,1.,0.));
#702=DIRECTION('center_axis',(-4.93432455388964E-15,-1.,0.));
#703=DIRECTION('ref_axis',(1.,-4.93432455388964E-15,0.));
#704=DIRECTION('',(-1.,4.93432455388964E-15,0.));
#705=DIRECTION('',(1.,-4.93432455388964E-15,0.));
#706=DIRECTION('',(0.,0.,1.));
#707=DIRECTION('center_axis',(-1.,0.,0.));
#708=DIRECTION('ref_axis',(0.,-1.,0.));
#709=DIRECTION('',(0.,1.,0.));
#710=DIRECTION('',(0.,-1.,0.));
#711=DIRECTION('',(0.,0.,1.));
#712=DIRECTION('center_axis',(0.,1.,0.));
#713=DIRECTION('ref_axis',(-1.,0.,0.));
#714=DIRECTION('',(1.,0.,0.));
#715=DIRECTION('',(-1.,0.,0.));
#716=DIRECTION('center_axis',(0.,0.,1.));
#717=DIRECTION('ref_axis',(1.,0.,0.));
#718=DIRECTION('center_axis',(0.,0.,1.));
#719=DIRECTION('ref_axis',(1.,0.,0.));
#720=DIRECTION('',(-1.,4.93432455388959E-15,0.));
#721=DIRECTION('',(0.,1.,0.));
#722=DIRECTION('',(1.,0.,0.));
#723=DIRECTION('',(-1.,0.,0.));
#724=DIRECTION('',(0.,1.,0.));
#725=DIRECTION('center_axis',(0.,1.,0.));
#726=DIRECTION('ref_axis',(-1.,0.,0.));
#727=DIRECTION('',(0.,0.,1.));
#728=DIRECTION('',(-1.,0.,0.));
#729=DIRECTION('center_axis',(-4.93432455388959E-15,-1.,0.));
#730=DIRECTION('ref_axis',(1.,-4.93432455388959E-15,0.));
#731=DIRECTION('',(1.,-4.93432455388959E-15,0.));
#732=DIRECTION('',(0.,0.,1.));
#733=DIRECTION('center_axis',(-1.,0.,0.));
#734=DIRECTION('ref_axis',(0.,-1.,0.));
#735=DIRECTION('',(0.,-1.,0.));
#736=DIRECTION('center_axis',(0.,0.,1.));
#737=DIRECTION('ref_axis',(1.,0.,0.));
#738=DIRECTION('center_axis',(0.,1.,0.));
#739=DIRECTION('ref_axis',(1.,0.,0.));
#740=DIRECTION('',(0.,0.,-1.));
#741=DIRECTION('center_axis',(-1.,0.,0.));
#742=DIRECTION('ref_axis',(0.,1.,0.));
#743=CARTESIAN_POINT('',(0.,0.,0.));
#744=CARTESIAN_POINT('Origin',(-138.125,-102.1,13.5));
#745=CARTESIAN_POINT('',(-138.15,-102.6,13.5));
#746=CARTESIAN_POINT('',(-138.15,-102.1,14.));
#747=CARTESIAN_POINT('Origin',(-138.15,-102.1,13.5));
#748=CARTESIAN_POINT('',(-140.3,-102.1,14.));
#749=CARTESIAN_POINT('',(-138.125,-102.1,14.));
#750=CARTESIAN_POINT('',(-140.3,-102.6,13.5));
#751=CARTESIAN_POINT('Origin',(-140.3,-102.1,13.5));
#752=CARTESIAN_POINT('',(-138.125,-102.6,13.5));
#753=CARTESIAN_POINT('Origin',(-138.85,-87.8,14.));
#754=CARTESIAN_POINT('',(-138.15,-73.,14.));
#755=CARTESIAN_POINT('',(-138.15,-43.95,14.));
#756=CARTESIAN_POINT('',(-140.3,-73.,14.));
#757=CARTESIAN_POINT('',(-140.3,-73.,14.));
#758=CARTESIAN_POINT('',(-140.3,-72.6,14.));
#759=CARTESIAN_POINT('Origin',(-138.15,-0.0999999999999979,-10.5));
#760=CARTESIAN_POINT('',(-138.15,-102.6,-34.5));
#761=CARTESIAN_POINT('',(-138.15,-102.6,-5.25));
#762=CARTESIAN_POINT('',(-138.15,-102.1,-35.));
#763=CARTESIAN_POINT('Origin',(-138.15,-102.1,-34.5));
#764=CARTESIAN_POINT('',(-138.15,101.9,-35.));
#765=CARTESIAN_POINT('',(-138.15,-31.35,-35.));
#766=CARTESIAN_POINT('',(-138.15,102.4,-34.5));
#767=CARTESIAN_POINT('Origin',(-138.15,101.9,-34.5));
#768=CARTESIAN_POINT('',(-138.15,102.4,13.5));
#769=CARTESIAN_POINT('',(-138.15,102.4,-5.25));
#770=CARTESIAN_POINT('',(-138.15,101.9,14.));
#771=CARTESIAN_POINT('Origin',(-138.15,101.9,13.5));
#772=CARTESIAN_POINT('',(-138.15,72.8,14.));
#773=CARTESIAN_POINT('',(-138.15,43.75,14.));
#774=CARTESIAN_POINT('',(-138.15,72.8,2.22044604925031E-15));
#775=CARTESIAN_POINT('',(-138.15,72.8,-5.25));
#776=CARTESIAN_POINT('',(-138.15,99.9,0.));
#777=CARTESIAN_POINT('',(-138.15,102.4,0.));
#778=CARTESIAN_POINT('',(-138.15,99.9,-29.5));
#779=CARTESIAN_POINT('',(-138.15,99.9,14.));
#780=CARTESIAN_POINT('',(-138.15,-100.1,-29.5));
#781=CARTESIAN_POINT('',(-138.15,-102.6,-29.5));
#782=CARTESIAN_POINT('',(-138.15,-100.1,0.));
#783=CARTESIAN_POINT('',(-138.15,-100.1,14.));
#784=CARTESIAN_POINT('',(-138.15,-73.,0.));
#785=CARTESIAN_POINT('',(-138.15,-73.,0.));
#786=CARTESIAN_POINT('',(-138.15,-73.,-5.25));
#787=CARTESIAN_POINT('Origin',(-139.574928264621,101.9,13.5));
#788=CARTESIAN_POINT('',(-140.299904352828,102.4,13.5));
#789=CARTESIAN_POINT('',(-140.299904352828,101.9,14.));
#790=CARTESIAN_POINT('Origin',(-140.299904352828,101.9,13.5));
#791=CARTESIAN_POINT('',(-139.574928264621,101.9,14.));
#792=CARTESIAN_POINT('',(-139.574928264621,102.4,13.5));
#793=CARTESIAN_POINT('Origin',(-140.299904352828,102.4,0.));
#794=CARTESIAN_POINT('',(-140.299904352828,102.4,-34.5));
#795=CARTESIAN_POINT('',(-139.299952176414,102.4,-34.5));
#796=CARTESIAN_POINT('',(-140.299904352828,102.4,0.));
#797=CARTESIAN_POINT('Origin',(-139.299952176414,101.9,-34.5));
#798=CARTESIAN_POINT('',(-140.299904352828,101.9,-35.));
#799=CARTESIAN_POINT('',(-139.299952176414,101.9,-35.));
#800=CARTESIAN_POINT('Origin',(-140.299904352828,101.9,-34.5));
#801=CARTESIAN_POINT('Origin',(-138.3,-62.6,-35.));
#802=CARTESIAN_POINT('',(-140.3,-102.1,-35.));
#803=CARTESIAN_POINT('',(-137.85,-102.1,-35.));
#804=CARTESIAN_POINT('',(-140.3,72.4,-35.));
#805=CARTESIAN_POINT('',(-140.3,-72.6,-35.));
#806=CARTESIAN_POINT('',(-140.299904352828,72.4,-35.));
#807=CARTESIAN_POINT('',(-137.4,72.4,-35.));
#808=CARTESIAN_POINT('',(-140.299904352828,72.4,-35.));
#809=CARTESIAN_POINT('Origin',(-137.85,-102.1,-34.5));
#810=CARTESIAN_POINT('',(-140.3,-102.6,-34.5));
#811=CARTESIAN_POINT('Origin',(-140.3,-102.1,-34.5));
#812=CARTESIAN_POINT('',(-137.85,-102.6,-34.5));
#813=CARTESIAN_POINT('Origin',(-137.4,-102.6,0.));
#814=CARTESIAN_POINT('',(-140.3,-102.6,0.));
#815=CARTESIAN_POINT('Origin',(-137.4,99.9,-29.5));
#816=CARTESIAN_POINT('',(-137.4,99.9,-29.5));
#817=CARTESIAN_POINT('',(-137.4,99.9,0.));
#818=CARTESIAN_POINT('',(-137.4,99.9,-14.75));
#819=CARTESIAN_POINT('',(-137.4,99.9,-29.5));
#820=CARTESIAN_POINT('',(-137.4,99.9,0.));
#821=CARTESIAN_POINT('Origin',(-137.4,-100.1,-29.5));
#822=CARTESIAN_POINT('',(-137.4,-100.1,-29.5));
#823=CARTESIAN_POINT('',(-137.4,-13.85,-29.5));
#824=CARTESIAN_POINT('',(-137.4,-100.1,-29.5));
#825=CARTESIAN_POINT('Origin',(-137.4,-100.1,0.));
#826=CARTESIAN_POINT('',(-137.4,-100.1,0.));
#827=CARTESIAN_POINT('',(-137.4,-100.1,0.));
#828=CARTESIAN_POINT('',(-137.4,-100.1,0.));
#829=CARTESIAN_POINT('Origin',(-137.4,72.4,0.));
#830=CARTESIAN_POINT('',(-137.4,-63.5,0.));
#831=CARTESIAN_POINT('',(-137.4,-0.300000000000007,0.));
#832=CARTESIAN_POINT('',(-137.4,63.3,0.));
#833=CARTESIAN_POINT('',(-137.4,72.4,0.));
#834=CARTESIAN_POINT('',(-137.4,63.3,2.25));
#835=CARTESIAN_POINT('',(-137.4,63.3,0.));
#836=CARTESIAN_POINT('',(-137.4,61.5,2.25));
#837=CARTESIAN_POINT('',(-137.4,61.5,2.25));
#838=CARTESIAN_POINT('',(-137.4,61.5,0.));
#839=CARTESIAN_POINT('',(-137.4,61.5,0.));
#840=CARTESIAN_POINT('',(-137.4,-61.7,0.));
#841=CARTESIAN_POINT('',(-137.4,72.4,0.));
#842=CARTESIAN_POINT('',(-137.4,-61.7,2.25));
#843=CARTESIAN_POINT('',(-137.4,-61.7,0.));
#844=CARTESIAN_POINT('',(-137.4,-63.5,2.25));
#845=CARTESIAN_POINT('',(-137.4,-61.7,2.25));
#846=CARTESIAN_POINT('',(-137.4,-63.5,0.));
#847=CARTESIAN_POINT('Origin',(-140.299904352828,72.8,0.));
#848=CARTESIAN_POINT('',(-140.299904352828,72.8,14.));
#849=CARTESIAN_POINT('',(-140.299904352828,72.8,14.));
#850=CARTESIAN_POINT('',(-140.299904352828,72.8,0.));
#851=CARTESIAN_POINT('',(-140.299904352828,72.8,0.));
#852=CARTESIAN_POINT('',(-139.299952176413,72.8,0.));
#853=CARTESIAN_POINT('Origin',(-138.849952176414,87.6,14.));
#854=CARTESIAN_POINT('',(-140.299904352828,72.4,14.));
#855=CARTESIAN_POINT('Origin',(-137.4,-73.,0.));
#856=CARTESIAN_POINT('',(-140.3,-73.,0.));
#857=CARTESIAN_POINT('',(-137.85,-73.,0.));
#858=CARTESIAN_POINT('',(-140.3,-73.,0.));
#859=CARTESIAN_POINT('Origin',(-140.299904352828,72.4,0.));
#860=CARTESIAN_POINT('',(-140.299904352828,72.4,0.));
#861=CARTESIAN_POINT('',(-140.299904352828,72.4,0.));
#862=CARTESIAN_POINT('',(-140.299904352828,72.4,0.));
#863=CARTESIAN_POINT('Origin',(-139.2,-63.4999999999999,0.));
#864=CARTESIAN_POINT('',(-139.2,-63.4999999999999,0.));
#865=CARTESIAN_POINT('',(-138.75,-63.4999999999999,0.));
#866=CARTESIAN_POINT('',(-139.2,-63.4999999999999,2.25));
#867=CARTESIAN_POINT('',(-137.4,-63.5,2.25));
#868=CARTESIAN_POINT('',(-139.2,-63.4999999999999,0.));
#869=CARTESIAN_POINT('Origin',(-139.2,-61.7,0.));
#870=CARTESIAN_POINT('',(-139.2,-61.7,0.));
#871=CARTESIAN_POINT('',(-139.2,-62.15,0.));
#872=CARTESIAN_POINT('',(-139.2,-61.7,2.25));
#873=CARTESIAN_POINT('',(-139.2,-63.4999999999999,2.25));
#874=CARTESIAN_POINT('',(-139.2,-61.7,0.));
#875=CARTESIAN_POINT('Origin',(-137.4,-61.7,0.));
#876=CARTESIAN_POINT('',(-137.85,-61.7,0.));
#877=CARTESIAN_POINT('',(-139.2,-61.7,2.25));
#878=CARTESIAN_POINT('Origin',(-138.3,-62.6,2.25));
#879=CARTESIAN_POINT('Origin',(-138.3,-62.6,0.));
#880=CARTESIAN_POINT('',(-139.2,61.5,0.));
#881=CARTESIAN_POINT('',(-138.75,61.5,0.));
#882=CARTESIAN_POINT('',(-139.2,63.3,0.));
#883=CARTESIAN_POINT('',(-139.2,0.350000000000001,0.));
#884=CARTESIAN_POINT('',(-137.85,63.3,0.));
#885=CARTESIAN_POINT('',(-140.3,72.4,0.));
#886=CARTESIAN_POINT('',(-137.4,72.4,0.));
#887=CARTESIAN_POINT('',(-140.3,-72.6,0.));
#888=CARTESIAN_POINT('Origin',(-137.4,63.3,0.));
#889=CARTESIAN_POINT('',(-139.2,63.3,2.25));
#890=CARTESIAN_POINT('',(-139.2,63.3,0.));
#891=CARTESIAN_POINT('',(-137.4,63.3,2.25));
#892=CARTESIAN_POINT('Origin',(-139.2,61.5,0.));
#893=CARTESIAN_POINT('',(-139.2,61.5,2.25));
#894=CARTESIAN_POINT('',(-139.2,61.5,2.25));
#895=CARTESIAN_POINT('',(-139.2,61.5,0.));
#896=CARTESIAN_POINT('Origin',(-139.2,63.3,0.));
#897=CARTESIAN_POINT('',(-139.2,63.3,2.25));
#898=CARTESIAN_POINT('Origin',(-138.3,62.4,2.25));
#899=CARTESIAN_POINT('Origin',(-140.3,72.4,0.));
#900=CARTESIAN_POINT('',(-140.3,72.4,0.));
#901=CARTESIAN_POINT('Origin',(-140.3,-72.6,0.));
#902=UNCERTAINTY_MEASURE_WITH_UNIT(LENGTH_MEASURE(0.01),#906,
'DISTANCE_ACCURACY_VALUE',
'Maximum model space distance between geometric entities at asserted c
onnectivities');
#903=UNCERTAINTY_MEASURE_WITH_UNIT(LENGTH_MEASURE(0.01),#906,
'DISTANCE_ACCURACY_VALUE',
'Maximum model space distance between geometric entities at asserted c
onnectivities');
#904=(
GEOMETRIC_REPRESENTATION_CONTEXT(3)
GLOBAL_UNCERTAINTY_ASSIGNED_CONTEXT((#902))
GLOBAL_UNIT_ASSIGNED_CONTEXT((#906,#907,#908))
REPRESENTATION_CONTEXT('','3D')
);
#905=(
GEOMETRIC_REPRESENTATION_CONTEXT(3)
GLOBAL_UNCERTAINTY_ASSIGNED_CONTEXT((#903))
GLOBAL_UNIT_ASSIGNED_CONTEXT((#906,#907,#908))
REPRESENTATION_CONTEXT('','3D')
);
#906=(
LENGTH_UNIT()
NAMED_UNIT(*)
SI_UNIT(.MILLI.,.METRE.)
);
#907=(
NAMED_UNIT(*)
PLANE_ANGLE_UNIT()
SI_UNIT($,.RADIAN.)
);
#908=(
NAMED_UNIT(*)
SI_UNIT($,.STERADIAN.)
SOLID_ANGLE_UNIT()
);
#909=SHAPE_DEFINITION_REPRESENTATION(#910,#911);
#910=PRODUCT_DEFINITION_SHAPE('',$,#913);
#911=SHAPE_REPRESENTATION('',(#562),#904);
#912=PRODUCT_DEFINITION_CONTEXT('part definition',#917,'design');
#913=PRODUCT_DEFINITION('shield','moving tray v4',#914,#912);
#914=PRODUCT_DEFINITION_FORMATION('',$,#919);
#915=PRODUCT_RELATED_PRODUCT_CATEGORY('moving tray v4','moving tray v4',
(#919));
#916=APPLICATION_PROTOCOL_DEFINITION('international standard',
'automotive_design',2009,#917);
#917=APPLICATION_CONTEXT(
'Core Data for Automotive Mechanical Design Process');
#918=PRODUCT_CONTEXT('part definition',#917,'mechanical');
#919=PRODUCT('shield','moving tray v4',$,(#918));
#920=PRESENTATION_STYLE_ASSIGNMENT((#922));
#921=PRESENTATION_STYLE_ASSIGNMENT((#923));
#922=SURFACE_STYLE_USAGE(.BOTH.,#924);
#923=SURFACE_STYLE_USAGE(.BOTH.,#925);
#924=SURFACE_SIDE_STYLE('',(#926));
#925=SURFACE_SIDE_STYLE('',(#927));
#926=SURFACE_STYLE_FILL_AREA(#928);
#927=SURFACE_STYLE_FILL_AREA(#929);
#928=FILL_AREA_STYLE('Steel - Satin',(#930));
#929=FILL_AREA_STYLE('Paint - Enamel Glossy (Red)',(#931));
#930=FILL_AREA_STYLE_COLOUR('Steel - Satin',#932);
#931=FILL_AREA_STYLE_COLOUR('Paint - Enamel Glossy (Red)',#933);
#932=COLOUR_RGB('Steel - Satin',0.627450980392157,0.627450980392157,0.627450980392157);
#933=COLOUR_RGB('Paint - Enamel Glossy (Red)',0.768627450980392,0.207843137254902,
0.152941176470588);
ENDSEC;
END-ISO-10303-21;
