ISO-10303-21;
HEADER;
/* Generated by software containing ST-Developer
 * from STEP Tools, Inc. (www.steptools.com) 
 */

FILE_DESCRIPTION(
/* description */ (''),
/* implementation_level */ '2;1');

FILE_NAME(
/* name */ 'uv base lid RevA.step',
/* time_stamp */ '2025-04-15T14:40:23-04:00',
/* author */ (''),
/* organization */ (''),
/* preprocessor_version */ 'ST-DEVELOPER v20.1',
/* originating_system */ 'Autodesk Translation Framework v14.4.0.0',
/* authorisation */ '');

FILE_SCHEMA (('AUTOMOTIVE_DESIGN { 1 0 10303 214 3 1 1 }'));
ENDSEC;

DATA;
#10=MECHANICAL_DESIGN_GEOMETRIC_PRESENTATION_REPRESENTATION('',(#13),#1581);
#11=SHAPE_REPRESENTATION_RELATIONSHIP('SRR','None',#1588,#12);
#12=ADVANCED_BREP_SHAPE_REPRESENTATION('',(#14),#1580);
#13=STYLED_ITEM('',(#1598),#14);
#14=MANIFOLD_SOLID_BREP('Body27',#957);
#15=FACE_BOUND('',#120,.T.);
#16=FACE_BOUND('',#121,.T.);
#17=FACE_BOUND('',#122,.T.);
#18=FACE_BOUND('',#123,.T.);
#19=FACE_BOUND('',#124,.T.);
#20=FACE_BOUND('',#133,.T.);
#21=FACE_BOUND('',#137,.T.);
#22=PLANE('',#974);
#23=PLANE('',#975);
#24=PLANE('',#985);
#25=PLANE('',#990);
#26=PLANE('',#994);
#27=PLANE('',#998);
#28=PLANE('',#1002);
#29=PLANE('',#1006);
#30=PLANE('',#1009);
#31=PLANE('',#1010);
#32=PLANE('',#1015);
#33=PLANE('',#1017);
#34=PLANE('',#1019);
#35=PLANE('',#1020);
#36=PLANE('',#1021);
#37=PLANE('',#1022);
#38=PLANE('',#1023);
#39=PLANE('',#1024);
#40=PLANE('',#1025);
#41=PLANE('',#1026);
#42=PLANE('',#1027);
#43=PLANE('',#1028);
#44=PLANE('',#1029);
#45=PLANE('',#1030);
#46=PLANE('',#1031);
#47=PLANE('',#1032);
#48=PLANE('',#1033);
#49=PLANE('',#1034);
#50=PLANE('',#1035);
#51=PLANE('',#1036);
#52=PLANE('',#1037);
#53=PLANE('',#1038);
#54=PLANE('',#1039);
#55=PLANE('',#1040);
#56=PLANE('',#1041);
#57=PLANE('',#1042);
#58=PLANE('',#1043);
#59=PLANE('',#1044);
#60=PLANE('',#1045);
#61=FACE_OUTER_BOUND('',#112,.T.);
#62=FACE_OUTER_BOUND('',#113,.T.);
#63=FACE_OUTER_BOUND('',#114,.T.);
#64=FACE_OUTER_BOUND('',#115,.T.);
#65=FACE_OUTER_BOUND('',#116,.T.);
#66=FACE_OUTER_BOUND('',#117,.T.);
#67=FACE_OUTER_BOUND('',#118,.T.);
#68=FACE_OUTER_BOUND('',#119,.T.);
#69=FACE_OUTER_BOUND('',#125,.T.);
#70=FACE_OUTER_BOUND('',#126,.T.);
#71=FACE_OUTER_BOUND('',#127,.T.);
#72=FACE_OUTER_BOUND('',#128,.T.);
#73=FACE_OUTER_BOUND('',#129,.T.);
#74=FACE_OUTER_BOUND('',#130,.T.);
#75=FACE_OUTER_BOUND('',#131,.T.);
#76=FACE_OUTER_BOUND('',#132,.T.);
#77=FACE_OUTER_BOUND('',#134,.T.);
#78=FACE_OUTER_BOUND('',#135,.T.);
#79=FACE_OUTER_BOUND('',#136,.T.);
#80=FACE_OUTER_BOUND('',#138,.T.);
#81=FACE_OUTER_BOUND('',#139,.T.);
#82=FACE_OUTER_BOUND('',#140,.T.);
#83=FACE_OUTER_BOUND('',#141,.T.);
#84=FACE_OUTER_BOUND('',#142,.T.);
#85=FACE_OUTER_BOUND('',#143,.T.);
#86=FACE_OUTER_BOUND('',#144,.T.);
#87=FACE_OUTER_BOUND('',#145,.T.);
#88=FACE_OUTER_BOUND('',#146,.T.);
#89=FACE_OUTER_BOUND('',#147,.T.);
#90=FACE_OUTER_BOUND('',#148,.T.);
#91=FACE_OUTER_BOUND('',#149,.T.);
#92=FACE_OUTER_BOUND('',#150,.T.);
#93=FACE_OUTER_BOUND('',#151,.T.);
#94=FACE_OUTER_BOUND('',#152,.T.);
#95=FACE_OUTER_BOUND('',#153,.T.);
#96=FACE_OUTER_BOUND('',#154,.T.);
#97=FACE_OUTER_BOUND('',#155,.T.);
#98=FACE_OUTER_BOUND('',#156,.T.);
#99=FACE_OUTER_BOUND('',#157,.T.);
#100=FACE_OUTER_BOUND('',#158,.T.);
#101=FACE_OUTER_BOUND('',#159,.T.);
#102=FACE_OUTER_BOUND('',#160,.T.);
#103=FACE_OUTER_BOUND('',#161,.T.);
#104=FACE_OUTER_BOUND('',#162,.T.);
#105=FACE_OUTER_BOUND('',#163,.T.);
#106=FACE_OUTER_BOUND('',#164,.T.);
#107=FACE_OUTER_BOUND('',#165,.T.);
#108=FACE_OUTER_BOUND('',#166,.T.);
#109=FACE_OUTER_BOUND('',#167,.T.);
#110=FACE_OUTER_BOUND('',#168,.T.);
#111=FACE_OUTER_BOUND('',#169,.T.);
#112=EDGE_LOOP('',(#630,#631,#632,#633));
#113=EDGE_LOOP('',(#634,#635,#636,#637));
#114=EDGE_LOOP('',(#638,#639,#640,#641,#642,#643,#644,#645,#646,#647,#648,
#649,#650,#651,#652,#653));
#115=EDGE_LOOP('',(#654,#655,#656,#657));
#116=EDGE_LOOP('',(#658,#659,#660,#661,#662,#663,#664,#665));
#117=EDGE_LOOP('',(#666,#667,#668,#669));
#118=EDGE_LOOP('',(#670,#671,#672,#673));
#119=EDGE_LOOP('',(#674,#675,#676,#677,#678,#679,#680,#681));
#120=EDGE_LOOP('',(#682,#683,#684,#685));
#121=EDGE_LOOP('',(#686,#687,#688,#689));
#122=EDGE_LOOP('',(#690,#691,#692,#693));
#123=EDGE_LOOP('',(#694,#695,#696,#697));
#124=EDGE_LOOP('',(#698,#699,#700,#701));
#125=EDGE_LOOP('',(#702,#703,#704,#705));
#126=EDGE_LOOP('',(#706,#707,#708,#709));
#127=EDGE_LOOP('',(#710,#711,#712,#713));
#128=EDGE_LOOP('',(#714,#715,#716,#717));
#129=EDGE_LOOP('',(#718,#719,#720,#721));
#130=EDGE_LOOP('',(#722,#723,#724,#725));
#131=EDGE_LOOP('',(#726,#727,#728,#729));
#132=EDGE_LOOP('',(#730,#731,#732,#733,#734,#735,#736,#737));
#133=EDGE_LOOP('',(#738,#739,#740,#741));
#134=EDGE_LOOP('',(#742,#743,#744,#745));
#135=EDGE_LOOP('',(#746,#747,#748,#749));
#136=EDGE_LOOP('',(#750,#751,#752,#753,#754,#755,#756,#757));
#137=EDGE_LOOP('',(#758,#759,#760,#761,#762,#763,#764,#765));
#138=EDGE_LOOP('',(#766,#767,#768,#769));
#139=EDGE_LOOP('',(#770,#771,#772,#773));
#140=EDGE_LOOP('',(#774,#775,#776,#777));
#141=EDGE_LOOP('',(#778,#779,#780,#781));
#142=EDGE_LOOP('',(#782,#783,#784,#785));
#143=EDGE_LOOP('',(#786,#787,#788,#789));
#144=EDGE_LOOP('',(#790,#791,#792,#793));
#145=EDGE_LOOP('',(#794,#795,#796,#797));
#146=EDGE_LOOP('',(#798,#799,#800,#801));
#147=EDGE_LOOP('',(#802,#803,#804,#805));
#148=EDGE_LOOP('',(#806,#807,#808,#809));
#149=EDGE_LOOP('',(#810,#811,#812,#813));
#150=EDGE_LOOP('',(#814,#815,#816,#817));
#151=EDGE_LOOP('',(#818,#819,#820,#821));
#152=EDGE_LOOP('',(#822,#823,#824,#825));
#153=EDGE_LOOP('',(#826,#827,#828,#829));
#154=EDGE_LOOP('',(#830,#831,#832,#833));
#155=EDGE_LOOP('',(#834,#835,#836,#837));
#156=EDGE_LOOP('',(#838,#839,#840,#841));
#157=EDGE_LOOP('',(#842,#843,#844,#845));
#158=EDGE_LOOP('',(#846,#847,#848,#849));
#159=EDGE_LOOP('',(#850,#851,#852,#853));
#160=EDGE_LOOP('',(#854,#855,#856,#857));
#161=EDGE_LOOP('',(#858,#859,#860,#861));
#162=EDGE_LOOP('',(#862,#863,#864,#865));
#163=EDGE_LOOP('',(#866,#867,#868,#869));
#164=EDGE_LOOP('',(#870,#871,#872,#873));
#165=EDGE_LOOP('',(#874,#875,#876,#877));
#166=EDGE_LOOP('',(#878,#879,#880,#881));
#167=EDGE_LOOP('',(#882,#883,#884,#885));
#168=EDGE_LOOP('',(#886,#887,#888,#889));
#169=EDGE_LOOP('',(#890,#891,#892,#893));
#170=LINE('',#1312,#278);
#171=LINE('',#1315,#279);
#172=LINE('',#1318,#280);
#173=LINE('',#1320,#281);
#174=LINE('',#1321,#282);
#175=LINE('',#1324,#283);
#176=LINE('',#1328,#284);
#177=LINE('',#1332,#285);
#178=LINE('',#1336,#286);
#179=LINE('',#1340,#287);
#180=LINE('',#1344,#288);
#181=LINE('',#1348,#289);
#182=LINE('',#1352,#290);
#183=LINE('',#1355,#291);
#184=LINE('',#1358,#292);
#185=LINE('',#1359,#293);
#186=LINE('',#1361,#294);
#187=LINE('',#1363,#295);
#188=LINE('',#1364,#296);
#189=LINE('',#1368,#297);
#190=LINE('',#1371,#298);
#191=LINE('',#1374,#299);
#192=LINE('',#1375,#300);
#193=LINE('',#1378,#301);
#194=LINE('',#1380,#302);
#195=LINE('',#1382,#303);
#196=LINE('',#1383,#304);
#197=LINE('',#1386,#305);
#198=LINE('',#1388,#306);
#199=LINE('',#1390,#307);
#200=LINE('',#1391,#308);
#201=LINE('',#1394,#309);
#202=LINE('',#1396,#310);
#203=LINE('',#1398,#311);
#204=LINE('',#1399,#312);
#205=LINE('',#1402,#313);
#206=LINE('',#1404,#314);
#207=LINE('',#1406,#315);
#208=LINE('',#1407,#316);
#209=LINE('',#1410,#317);
#210=LINE('',#1412,#318);
#211=LINE('',#1414,#319);
#212=LINE('',#1415,#320);
#213=LINE('',#1421,#321);
#214=LINE('',#1424,#322);
#215=LINE('',#1427,#323);
#216=LINE('',#1429,#324);
#217=LINE('',#1430,#325);
#218=LINE('',#1435,#326);
#219=LINE('',#1439,#327);
#220=LINE('',#1441,#328);
#221=LINE('',#1442,#329);
#222=LINE('',#1447,#330);
#223=LINE('',#1451,#331);
#224=LINE('',#1453,#332);
#225=LINE('',#1454,#333);
#226=LINE('',#1459,#334);
#227=LINE('',#1462,#335);
#228=LINE('',#1465,#336);
#229=LINE('',#1467,#337);
#230=LINE('',#1469,#338);
#231=LINE('',#1470,#339);
#232=LINE('',#1474,#340);
#233=LINE('',#1477,#341);
#234=LINE('',#1478,#342);
#235=LINE('',#1483,#343);
#236=LINE('',#1487,#344);
#237=LINE('',#1489,#345);
#238=LINE('',#1491,#346);
#239=LINE('',#1493,#347);
#240=LINE('',#1495,#348);
#241=LINE('',#1497,#349);
#242=LINE('',#1500,#350);
#243=LINE('',#1501,#351);
#244=LINE('',#1503,#352);
#245=LINE('',#1505,#353);
#246=LINE('',#1510,#354);
#247=LINE('',#1512,#355);
#248=LINE('',#1513,#356);
#249=LINE('',#1516,#357);
#250=LINE('',#1517,#358);
#251=LINE('',#1520,#359);
#252=LINE('',#1521,#360);
#253=LINE('',#1523,#361);
#254=LINE('',#1527,#362);
#255=LINE('',#1529,#363);
#256=LINE('',#1530,#364);
#257=LINE('',#1533,#365);
#258=LINE('',#1534,#366);
#259=LINE('',#1537,#367);
#260=LINE('',#1538,#368);
#261=LINE('',#1540,#369);
#262=LINE('',#1544,#370);
#263=LINE('',#1546,#371);
#264=LINE('',#1547,#372);
#265=LINE('',#1550,#373);
#266=LINE('',#1551,#374);
#267=LINE('',#1554,#375);
#268=LINE('',#1555,#376);
#269=LINE('',#1557,#377);
#270=LINE('',#1561,#378);
#271=LINE('',#1563,#379);
#272=LINE('',#1564,#380);
#273=LINE('',#1567,#381);
#274=LINE('',#1568,#382);
#275=LINE('',#1571,#383);
#276=LINE('',#1572,#384);
#277=LINE('',#1574,#385);
#278=VECTOR('',#1052,10.);
#279=VECTOR('',#1055,10.);
#280=VECTOR('',#1058,10.);
#281=VECTOR('',#1059,10.);
#282=VECTOR('',#1060,10.);
#283=VECTOR('',#1063,10.);
#284=VECTOR('',#1066,10.);
#285=VECTOR('',#1069,10.);
#286=VECTOR('',#1072,10.);
#287=VECTOR('',#1075,10.);
#288=VECTOR('',#1078,10.);
#289=VECTOR('',#1081,10.);
#290=VECTOR('',#1086,10.);
#291=VECTOR('',#1089,10.);
#292=VECTOR('',#1092,10.);
#293=VECTOR('',#1093,10.);
#294=VECTOR('',#1094,10.);
#295=VECTOR('',#1095,10.);
#296=VECTOR('',#1096,10.);
#297=VECTOR('',#1101,10.);
#298=VECTOR('',#1104,10.);
#299=VECTOR('',#1109,10.);
#300=VECTOR('',#1110,10.);
#301=VECTOR('',#1111,10.);
#302=VECTOR('',#1112,10.);
#303=VECTOR('',#1113,10.);
#304=VECTOR('',#1114,10.);
#305=VECTOR('',#1115,10.);
#306=VECTOR('',#1116,10.);
#307=VECTOR('',#1117,10.);
#308=VECTOR('',#1118,10.);
#309=VECTOR('',#1119,10.);
#310=VECTOR('',#1120,10.);
#311=VECTOR('',#1121,10.);
#312=VECTOR('',#1122,10.);
#313=VECTOR('',#1123,10.);
#314=VECTOR('',#1124,10.);
#315=VECTOR('',#1125,10.);
#316=VECTOR('',#1126,10.);
#317=VECTOR('',#1127,10.);
#318=VECTOR('',#1128,10.);
#319=VECTOR('',#1129,10.);
#320=VECTOR('',#1130,10.);
#321=VECTOR('',#1135,10.);
#322=VECTOR('',#1138,10.);
#323=VECTOR('',#1141,10.);
#324=VECTOR('',#1142,10.);
#325=VECTOR('',#1143,10.);
#326=VECTOR('',#1148,10.);
#327=VECTOR('',#1153,10.);
#328=VECTOR('',#1154,10.);
#329=VECTOR('',#1155,10.);
#330=VECTOR('',#1160,10.);
#331=VECTOR('',#1165,10.);
#332=VECTOR('',#1166,10.);
#333=VECTOR('',#1167,10.);
#334=VECTOR('',#1172,10.);
#335=VECTOR('',#1177,10.);
#336=VECTOR('',#1178,10.);
#337=VECTOR('',#1179,10.);
#338=VECTOR('',#1180,10.);
#339=VECTOR('',#1181,10.);
#340=VECTOR('',#1186,10.);
#341=VECTOR('',#1189,10.);
#342=VECTOR('',#1190,10.);
#343=VECTOR('',#1195,10.);
#344=VECTOR('',#1198,10.);
#345=VECTOR('',#1201,10.);
#346=VECTOR('',#1204,10.);
#347=VECTOR('',#1207,10.);
#348=VECTOR('',#1210,10.);
#349=VECTOR('',#1213,10.);
#350=VECTOR('',#1218,10.);
#351=VECTOR('',#1219,10.);
#352=VECTOR('',#1222,10.);
#353=VECTOR('',#1225,10.);
#354=VECTOR('',#1232,10.);
#355=VECTOR('',#1233,10.);
#356=VECTOR('',#1234,10.);
#357=VECTOR('',#1237,10.);
#358=VECTOR('',#1238,10.);
#359=VECTOR('',#1241,10.);
#360=VECTOR('',#1242,10.);
#361=VECTOR('',#1245,10.);
#362=VECTOR('',#1250,10.);
#363=VECTOR('',#1251,10.);
#364=VECTOR('',#1252,10.);
#365=VECTOR('',#1255,10.);
#366=VECTOR('',#1256,10.);
#367=VECTOR('',#1259,10.);
#368=VECTOR('',#1260,10.);
#369=VECTOR('',#1263,10.);
#370=VECTOR('',#1268,10.);
#371=VECTOR('',#1269,10.);
#372=VECTOR('',#1270,10.);
#373=VECTOR('',#1273,10.);
#374=VECTOR('',#1274,10.);
#375=VECTOR('',#1277,10.);
#376=VECTOR('',#1278,10.);
#377=VECTOR('',#1281,10.);
#378=VECTOR('',#1286,10.);
#379=VECTOR('',#1287,10.);
#380=VECTOR('',#1288,10.);
#381=VECTOR('',#1291,10.);
#382=VECTOR('',#1292,10.);
#383=VECTOR('',#1295,10.);
#384=VECTOR('',#1296,10.);
#385=VECTOR('',#1299,10.);
#386=CIRCLE('',#972,2.);
#387=CIRCLE('',#973,2.);
#388=CIRCLE('',#976,2.);
#389=CIRCLE('',#977,2.);
#390=CIRCLE('',#978,2.);
#391=CIRCLE('',#979,2.);
#392=CIRCLE('',#980,2.);
#393=CIRCLE('',#981,2.);
#394=CIRCLE('',#982,2.);
#395=CIRCLE('',#984,2.);
#396=CIRCLE('',#987,2.);
#397=CIRCLE('',#989,2.);
#398=CIRCLE('',#992,1.);
#399=CIRCLE('',#993,1.);
#400=CIRCLE('',#996,1.);
#401=CIRCLE('',#997,1.);
#402=CIRCLE('',#1000,1.);
#403=CIRCLE('',#1001,1.);
#404=CIRCLE('',#1004,1.);
#405=CIRCLE('',#1005,1.);
#406=CIRCLE('',#1008,2.);
#407=CIRCLE('',#1011,2.);
#408=CIRCLE('',#1012,2.);
#409=CIRCLE('',#1013,2.);
#410=VERTEX_POINT('',#1308);
#411=VERTEX_POINT('',#1309);
#412=VERTEX_POINT('',#1311);
#413=VERTEX_POINT('',#1313);
#414=VERTEX_POINT('',#1317);
#415=VERTEX_POINT('',#1319);
#416=VERTEX_POINT('',#1323);
#417=VERTEX_POINT('',#1325);
#418=VERTEX_POINT('',#1327);
#419=VERTEX_POINT('',#1329);
#420=VERTEX_POINT('',#1331);
#421=VERTEX_POINT('',#1333);
#422=VERTEX_POINT('',#1335);
#423=VERTEX_POINT('',#1337);
#424=VERTEX_POINT('',#1339);
#425=VERTEX_POINT('',#1341);
#426=VERTEX_POINT('',#1343);
#427=VERTEX_POINT('',#1345);
#428=VERTEX_POINT('',#1347);
#429=VERTEX_POINT('',#1351);
#430=VERTEX_POINT('',#1353);
#431=VERTEX_POINT('',#1357);
#432=VERTEX_POINT('',#1360);
#433=VERTEX_POINT('',#1362);
#434=VERTEX_POINT('',#1366);
#435=VERTEX_POINT('',#1370);
#436=VERTEX_POINT('',#1376);
#437=VERTEX_POINT('',#1377);
#438=VERTEX_POINT('',#1379);
#439=VERTEX_POINT('',#1381);
#440=VERTEX_POINT('',#1384);
#441=VERTEX_POINT('',#1385);
#442=VERTEX_POINT('',#1387);
#443=VERTEX_POINT('',#1389);
#444=VERTEX_POINT('',#1392);
#445=VERTEX_POINT('',#1393);
#446=VERTEX_POINT('',#1395);
#447=VERTEX_POINT('',#1397);
#448=VERTEX_POINT('',#1400);
#449=VERTEX_POINT('',#1401);
#450=VERTEX_POINT('',#1403);
#451=VERTEX_POINT('',#1405);
#452=VERTEX_POINT('',#1408);
#453=VERTEX_POINT('',#1409);
#454=VERTEX_POINT('',#1411);
#455=VERTEX_POINT('',#1413);
#456=VERTEX_POINT('',#1417);
#457=VERTEX_POINT('',#1418);
#458=VERTEX_POINT('',#1420);
#459=VERTEX_POINT('',#1422);
#460=VERTEX_POINT('',#1426);
#461=VERTEX_POINT('',#1428);
#462=VERTEX_POINT('',#1432);
#463=VERTEX_POINT('',#1434);
#464=VERTEX_POINT('',#1438);
#465=VERTEX_POINT('',#1440);
#466=VERTEX_POINT('',#1444);
#467=VERTEX_POINT('',#1446);
#468=VERTEX_POINT('',#1450);
#469=VERTEX_POINT('',#1452);
#470=VERTEX_POINT('',#1456);
#471=VERTEX_POINT('',#1458);
#472=VERTEX_POINT('',#1463);
#473=VERTEX_POINT('',#1464);
#474=VERTEX_POINT('',#1466);
#475=VERTEX_POINT('',#1468);
#476=VERTEX_POINT('',#1472);
#477=VERTEX_POINT('',#1476);
#478=VERTEX_POINT('',#1480);
#479=VERTEX_POINT('',#1482);
#480=VERTEX_POINT('',#1484);
#481=VERTEX_POINT('',#1486);
#482=VERTEX_POINT('',#1509);
#483=VERTEX_POINT('',#1511);
#484=VERTEX_POINT('',#1515);
#485=VERTEX_POINT('',#1519);
#486=VERTEX_POINT('',#1526);
#487=VERTEX_POINT('',#1528);
#488=VERTEX_POINT('',#1532);
#489=VERTEX_POINT('',#1536);
#490=VERTEX_POINT('',#1543);
#491=VERTEX_POINT('',#1545);
#492=VERTEX_POINT('',#1549);
#493=VERTEX_POINT('',#1553);
#494=VERTEX_POINT('',#1560);
#495=VERTEX_POINT('',#1562);
#496=VERTEX_POINT('',#1566);
#497=VERTEX_POINT('',#1570);
#498=EDGE_CURVE('',#410,#411,#386,.T.);
#499=EDGE_CURVE('',#411,#412,#170,.T.);
#500=EDGE_CURVE('',#412,#413,#387,.T.);
#501=EDGE_CURVE('',#413,#410,#171,.T.);
#502=EDGE_CURVE('',#414,#411,#172,.T.);
#503=EDGE_CURVE('',#415,#414,#173,.T.);
#504=EDGE_CURVE('',#412,#415,#174,.T.);
#505=EDGE_CURVE('',#410,#416,#175,.T.);
#506=EDGE_CURVE('',#417,#416,#388,.T.);
#507=EDGE_CURVE('',#417,#418,#176,.T.);
#508=EDGE_CURVE('',#419,#418,#389,.F.);
#509=EDGE_CURVE('',#419,#420,#177,.T.);
#510=EDGE_CURVE('',#421,#420,#390,.F.);
#511=EDGE_CURVE('',#421,#422,#178,.T.);
#512=EDGE_CURVE('',#423,#422,#391,.F.);
#513=EDGE_CURVE('',#423,#424,#179,.T.);
#514=EDGE_CURVE('',#425,#424,#392,.F.);
#515=EDGE_CURVE('',#425,#426,#180,.T.);
#516=EDGE_CURVE('',#427,#426,#393,.T.);
#517=EDGE_CURVE('',#427,#428,#181,.T.);
#518=EDGE_CURVE('',#414,#428,#394,.T.);
#519=EDGE_CURVE('',#416,#429,#182,.T.);
#520=EDGE_CURVE('',#429,#430,#395,.T.);
#521=EDGE_CURVE('',#430,#417,#183,.T.);
#522=EDGE_CURVE('',#431,#430,#184,.T.);
#523=EDGE_CURVE('',#426,#431,#185,.T.);
#524=EDGE_CURVE('',#432,#425,#186,.T.);
#525=EDGE_CURVE('',#433,#432,#187,.T.);
#526=EDGE_CURVE('',#418,#433,#188,.T.);
#527=EDGE_CURVE('',#431,#434,#396,.T.);
#528=EDGE_CURVE('',#434,#427,#189,.T.);
#529=EDGE_CURVE('',#428,#435,#190,.T.);
#530=EDGE_CURVE('',#435,#415,#397,.T.);
#531=EDGE_CURVE('',#435,#434,#191,.T.);
#532=EDGE_CURVE('',#413,#429,#192,.T.);
#533=EDGE_CURVE('',#436,#437,#193,.T.);
#534=EDGE_CURVE('',#437,#438,#194,.T.);
#535=EDGE_CURVE('',#438,#439,#195,.T.);
#536=EDGE_CURVE('',#439,#436,#196,.T.);
#537=EDGE_CURVE('',#440,#441,#197,.T.);
#538=EDGE_CURVE('',#441,#442,#198,.T.);
#539=EDGE_CURVE('',#442,#443,#199,.T.);
#540=EDGE_CURVE('',#443,#440,#200,.T.);
#541=EDGE_CURVE('',#444,#445,#201,.T.);
#542=EDGE_CURVE('',#445,#446,#202,.T.);
#543=EDGE_CURVE('',#446,#447,#203,.T.);
#544=EDGE_CURVE('',#447,#444,#204,.T.);
#545=EDGE_CURVE('',#448,#449,#205,.T.);
#546=EDGE_CURVE('',#449,#450,#206,.T.);
#547=EDGE_CURVE('',#450,#451,#207,.T.);
#548=EDGE_CURVE('',#451,#448,#208,.T.);
#549=EDGE_CURVE('',#452,#453,#209,.T.);
#550=EDGE_CURVE('',#453,#454,#210,.T.);
#551=EDGE_CURVE('',#454,#455,#211,.T.);
#552=EDGE_CURVE('',#455,#452,#212,.T.);
#553=EDGE_CURVE('',#456,#457,#398,.T.);
#554=EDGE_CURVE('',#456,#458,#213,.T.);
#555=EDGE_CURVE('',#458,#459,#399,.T.);
#556=EDGE_CURVE('',#459,#457,#214,.T.);
#557=EDGE_CURVE('',#460,#456,#215,.T.);
#558=EDGE_CURVE('',#461,#460,#216,.T.);
#559=EDGE_CURVE('',#458,#461,#217,.T.);
#560=EDGE_CURVE('',#462,#460,#400,.T.);
#561=EDGE_CURVE('',#462,#463,#218,.T.);
#562=EDGE_CURVE('',#463,#461,#401,.T.);
#563=EDGE_CURVE('',#464,#462,#219,.T.);
#564=EDGE_CURVE('',#465,#464,#220,.T.);
#565=EDGE_CURVE('',#463,#465,#221,.T.);
#566=EDGE_CURVE('',#466,#464,#402,.T.);
#567=EDGE_CURVE('',#466,#467,#222,.T.);
#568=EDGE_CURVE('',#467,#465,#403,.T.);
#569=EDGE_CURVE('',#468,#466,#223,.T.);
#570=EDGE_CURVE('',#469,#468,#224,.T.);
#571=EDGE_CURVE('',#467,#469,#225,.T.);
#572=EDGE_CURVE('',#470,#468,#404,.T.);
#573=EDGE_CURVE('',#470,#471,#226,.T.);
#574=EDGE_CURVE('',#471,#469,#405,.T.);
#575=EDGE_CURVE('',#457,#470,#227,.T.);
#576=EDGE_CURVE('',#472,#473,#228,.T.);
#577=EDGE_CURVE('',#473,#474,#229,.T.);
#578=EDGE_CURVE('',#474,#475,#230,.T.);
#579=EDGE_CURVE('',#475,#472,#231,.T.);
#580=EDGE_CURVE('',#433,#476,#406,.T.);
#581=EDGE_CURVE('',#476,#419,#232,.T.);
#582=EDGE_CURVE('',#477,#476,#233,.T.);
#583=EDGE_CURVE('',#420,#477,#234,.T.);
#584=EDGE_CURVE('',#478,#432,#407,.T.);
#585=EDGE_CURVE('',#478,#479,#235,.T.);
#586=EDGE_CURVE('',#480,#479,#408,.T.);
#587=EDGE_CURVE('',#480,#481,#236,.T.);
#588=EDGE_CURVE('',#477,#481,#409,.T.);
#589=EDGE_CURVE('',#471,#459,#237,.T.);
#590=EDGE_CURVE('',#481,#421,#238,.T.);
#591=EDGE_CURVE('',#422,#480,#239,.T.);
#592=EDGE_CURVE('',#424,#478,#240,.T.);
#593=EDGE_CURVE('',#479,#423,#241,.T.);
#594=EDGE_CURVE('',#452,#473,#242,.T.);
#595=EDGE_CURVE('',#453,#472,#243,.T.);
#596=EDGE_CURVE('',#455,#474,#244,.T.);
#597=EDGE_CURVE('',#454,#475,#245,.T.);
#598=EDGE_CURVE('',#436,#482,#246,.T.);
#599=EDGE_CURVE('',#482,#483,#247,.T.);
#600=EDGE_CURVE('',#437,#483,#248,.T.);
#601=EDGE_CURVE('',#439,#484,#249,.T.);
#602=EDGE_CURVE('',#484,#482,#250,.T.);
#603=EDGE_CURVE('',#438,#485,#251,.T.);
#604=EDGE_CURVE('',#485,#484,#252,.T.);
#605=EDGE_CURVE('',#483,#485,#253,.T.);
#606=EDGE_CURVE('',#440,#486,#254,.T.);
#607=EDGE_CURVE('',#486,#487,#255,.T.);
#608=EDGE_CURVE('',#441,#487,#256,.T.);
#609=EDGE_CURVE('',#443,#488,#257,.T.);
#610=EDGE_CURVE('',#488,#486,#258,.T.);
#611=EDGE_CURVE('',#442,#489,#259,.T.);
#612=EDGE_CURVE('',#489,#488,#260,.T.);
#613=EDGE_CURVE('',#487,#489,#261,.T.);
#614=EDGE_CURVE('',#444,#490,#262,.T.);
#615=EDGE_CURVE('',#490,#491,#263,.T.);
#616=EDGE_CURVE('',#445,#491,#264,.T.);
#617=EDGE_CURVE('',#447,#492,#265,.T.);
#618=EDGE_CURVE('',#492,#490,#266,.T.);
#619=EDGE_CURVE('',#446,#493,#267,.T.);
#620=EDGE_CURVE('',#493,#492,#268,.T.);
#621=EDGE_CURVE('',#491,#493,#269,.T.);
#622=EDGE_CURVE('',#448,#494,#270,.T.);
#623=EDGE_CURVE('',#494,#495,#271,.T.);
#624=EDGE_CURVE('',#449,#495,#272,.T.);
#625=EDGE_CURVE('',#451,#496,#273,.T.);
#626=EDGE_CURVE('',#496,#494,#274,.T.);
#627=EDGE_CURVE('',#450,#497,#275,.T.);
#628=EDGE_CURVE('',#497,#496,#276,.T.);
#629=EDGE_CURVE('',#495,#497,#277,.T.);
#630=ORIENTED_EDGE('',*,*,#498,.T.);
#631=ORIENTED_EDGE('',*,*,#499,.T.);
#632=ORIENTED_EDGE('',*,*,#500,.T.);
#633=ORIENTED_EDGE('',*,*,#501,.T.);
#634=ORIENTED_EDGE('',*,*,#499,.F.);
#635=ORIENTED_EDGE('',*,*,#502,.F.);
#636=ORIENTED_EDGE('',*,*,#503,.F.);
#637=ORIENTED_EDGE('',*,*,#504,.F.);
#638=ORIENTED_EDGE('',*,*,#498,.F.);
#639=ORIENTED_EDGE('',*,*,#505,.T.);
#640=ORIENTED_EDGE('',*,*,#506,.F.);
#641=ORIENTED_EDGE('',*,*,#507,.T.);
#642=ORIENTED_EDGE('',*,*,#508,.F.);
#643=ORIENTED_EDGE('',*,*,#509,.T.);
#644=ORIENTED_EDGE('',*,*,#510,.F.);
#645=ORIENTED_EDGE('',*,*,#511,.T.);
#646=ORIENTED_EDGE('',*,*,#512,.F.);
#647=ORIENTED_EDGE('',*,*,#513,.T.);
#648=ORIENTED_EDGE('',*,*,#514,.F.);
#649=ORIENTED_EDGE('',*,*,#515,.T.);
#650=ORIENTED_EDGE('',*,*,#516,.F.);
#651=ORIENTED_EDGE('',*,*,#517,.T.);
#652=ORIENTED_EDGE('',*,*,#518,.F.);
#653=ORIENTED_EDGE('',*,*,#502,.T.);
#654=ORIENTED_EDGE('',*,*,#506,.T.);
#655=ORIENTED_EDGE('',*,*,#519,.T.);
#656=ORIENTED_EDGE('',*,*,#520,.T.);
#657=ORIENTED_EDGE('',*,*,#521,.T.);
#658=ORIENTED_EDGE('',*,*,#521,.F.);
#659=ORIENTED_EDGE('',*,*,#522,.F.);
#660=ORIENTED_EDGE('',*,*,#523,.F.);
#661=ORIENTED_EDGE('',*,*,#515,.F.);
#662=ORIENTED_EDGE('',*,*,#524,.F.);
#663=ORIENTED_EDGE('',*,*,#525,.F.);
#664=ORIENTED_EDGE('',*,*,#526,.F.);
#665=ORIENTED_EDGE('',*,*,#507,.F.);
#666=ORIENTED_EDGE('',*,*,#516,.T.);
#667=ORIENTED_EDGE('',*,*,#523,.T.);
#668=ORIENTED_EDGE('',*,*,#527,.T.);
#669=ORIENTED_EDGE('',*,*,#528,.T.);
#670=ORIENTED_EDGE('',*,*,#518,.T.);
#671=ORIENTED_EDGE('',*,*,#529,.T.);
#672=ORIENTED_EDGE('',*,*,#530,.T.);
#673=ORIENTED_EDGE('',*,*,#503,.T.);
#674=ORIENTED_EDGE('',*,*,#500,.F.);
#675=ORIENTED_EDGE('',*,*,#504,.T.);
#676=ORIENTED_EDGE('',*,*,#530,.F.);
#677=ORIENTED_EDGE('',*,*,#531,.T.);
#678=ORIENTED_EDGE('',*,*,#527,.F.);
#679=ORIENTED_EDGE('',*,*,#522,.T.);
#680=ORIENTED_EDGE('',*,*,#520,.F.);
#681=ORIENTED_EDGE('',*,*,#532,.F.);
#682=ORIENTED_EDGE('',*,*,#533,.T.);
#683=ORIENTED_EDGE('',*,*,#534,.T.);
#684=ORIENTED_EDGE('',*,*,#535,.T.);
#685=ORIENTED_EDGE('',*,*,#536,.T.);
#686=ORIENTED_EDGE('',*,*,#537,.T.);
#687=ORIENTED_EDGE('',*,*,#538,.T.);
#688=ORIENTED_EDGE('',*,*,#539,.T.);
#689=ORIENTED_EDGE('',*,*,#540,.T.);
#690=ORIENTED_EDGE('',*,*,#541,.T.);
#691=ORIENTED_EDGE('',*,*,#542,.T.);
#692=ORIENTED_EDGE('',*,*,#543,.T.);
#693=ORIENTED_EDGE('',*,*,#544,.T.);
#694=ORIENTED_EDGE('',*,*,#545,.T.);
#695=ORIENTED_EDGE('',*,*,#546,.T.);
#696=ORIENTED_EDGE('',*,*,#547,.T.);
#697=ORIENTED_EDGE('',*,*,#548,.T.);
#698=ORIENTED_EDGE('',*,*,#549,.T.);
#699=ORIENTED_EDGE('',*,*,#550,.T.);
#700=ORIENTED_EDGE('',*,*,#551,.T.);
#701=ORIENTED_EDGE('',*,*,#552,.T.);
#702=ORIENTED_EDGE('',*,*,#553,.F.);
#703=ORIENTED_EDGE('',*,*,#554,.T.);
#704=ORIENTED_EDGE('',*,*,#555,.T.);
#705=ORIENTED_EDGE('',*,*,#556,.T.);
#706=ORIENTED_EDGE('',*,*,#554,.F.);
#707=ORIENTED_EDGE('',*,*,#557,.F.);
#708=ORIENTED_EDGE('',*,*,#558,.F.);
#709=ORIENTED_EDGE('',*,*,#559,.F.);
#710=ORIENTED_EDGE('',*,*,#560,.F.);
#711=ORIENTED_EDGE('',*,*,#561,.T.);
#712=ORIENTED_EDGE('',*,*,#562,.T.);
#713=ORIENTED_EDGE('',*,*,#558,.T.);
#714=ORIENTED_EDGE('',*,*,#561,.F.);
#715=ORIENTED_EDGE('',*,*,#563,.F.);
#716=ORIENTED_EDGE('',*,*,#564,.F.);
#717=ORIENTED_EDGE('',*,*,#565,.F.);
#718=ORIENTED_EDGE('',*,*,#566,.F.);
#719=ORIENTED_EDGE('',*,*,#567,.T.);
#720=ORIENTED_EDGE('',*,*,#568,.T.);
#721=ORIENTED_EDGE('',*,*,#564,.T.);
#722=ORIENTED_EDGE('',*,*,#567,.F.);
#723=ORIENTED_EDGE('',*,*,#569,.F.);
#724=ORIENTED_EDGE('',*,*,#570,.F.);
#725=ORIENTED_EDGE('',*,*,#571,.F.);
#726=ORIENTED_EDGE('',*,*,#572,.F.);
#727=ORIENTED_EDGE('',*,*,#573,.T.);
#728=ORIENTED_EDGE('',*,*,#574,.T.);
#729=ORIENTED_EDGE('',*,*,#570,.T.);
#730=ORIENTED_EDGE('',*,*,#553,.T.);
#731=ORIENTED_EDGE('',*,*,#575,.T.);
#732=ORIENTED_EDGE('',*,*,#572,.T.);
#733=ORIENTED_EDGE('',*,*,#569,.T.);
#734=ORIENTED_EDGE('',*,*,#566,.T.);
#735=ORIENTED_EDGE('',*,*,#563,.T.);
#736=ORIENTED_EDGE('',*,*,#560,.T.);
#737=ORIENTED_EDGE('',*,*,#557,.T.);
#738=ORIENTED_EDGE('',*,*,#576,.T.);
#739=ORIENTED_EDGE('',*,*,#577,.T.);
#740=ORIENTED_EDGE('',*,*,#578,.T.);
#741=ORIENTED_EDGE('',*,*,#579,.T.);
#742=ORIENTED_EDGE('',*,*,#580,.T.);
#743=ORIENTED_EDGE('',*,*,#581,.T.);
#744=ORIENTED_EDGE('',*,*,#508,.T.);
#745=ORIENTED_EDGE('',*,*,#526,.T.);
#746=ORIENTED_EDGE('',*,*,#581,.F.);
#747=ORIENTED_EDGE('',*,*,#582,.F.);
#748=ORIENTED_EDGE('',*,*,#583,.F.);
#749=ORIENTED_EDGE('',*,*,#509,.F.);
#750=ORIENTED_EDGE('',*,*,#580,.F.);
#751=ORIENTED_EDGE('',*,*,#525,.T.);
#752=ORIENTED_EDGE('',*,*,#584,.F.);
#753=ORIENTED_EDGE('',*,*,#585,.T.);
#754=ORIENTED_EDGE('',*,*,#586,.F.);
#755=ORIENTED_EDGE('',*,*,#587,.T.);
#756=ORIENTED_EDGE('',*,*,#588,.F.);
#757=ORIENTED_EDGE('',*,*,#582,.T.);
#758=ORIENTED_EDGE('',*,*,#589,.T.);
#759=ORIENTED_EDGE('',*,*,#555,.F.);
#760=ORIENTED_EDGE('',*,*,#559,.T.);
#761=ORIENTED_EDGE('',*,*,#562,.F.);
#762=ORIENTED_EDGE('',*,*,#565,.T.);
#763=ORIENTED_EDGE('',*,*,#568,.F.);
#764=ORIENTED_EDGE('',*,*,#571,.T.);
#765=ORIENTED_EDGE('',*,*,#574,.F.);
#766=ORIENTED_EDGE('',*,*,#588,.T.);
#767=ORIENTED_EDGE('',*,*,#590,.T.);
#768=ORIENTED_EDGE('',*,*,#510,.T.);
#769=ORIENTED_EDGE('',*,*,#583,.T.);
#770=ORIENTED_EDGE('',*,*,#590,.F.);
#771=ORIENTED_EDGE('',*,*,#587,.F.);
#772=ORIENTED_EDGE('',*,*,#591,.F.);
#773=ORIENTED_EDGE('',*,*,#511,.F.);
#774=ORIENTED_EDGE('',*,*,#584,.T.);
#775=ORIENTED_EDGE('',*,*,#524,.T.);
#776=ORIENTED_EDGE('',*,*,#514,.T.);
#777=ORIENTED_EDGE('',*,*,#592,.T.);
#778=ORIENTED_EDGE('',*,*,#592,.F.);
#779=ORIENTED_EDGE('',*,*,#513,.F.);
#780=ORIENTED_EDGE('',*,*,#593,.F.);
#781=ORIENTED_EDGE('',*,*,#585,.F.);
#782=ORIENTED_EDGE('',*,*,#586,.T.);
#783=ORIENTED_EDGE('',*,*,#593,.T.);
#784=ORIENTED_EDGE('',*,*,#512,.T.);
#785=ORIENTED_EDGE('',*,*,#591,.T.);
#786=ORIENTED_EDGE('',*,*,#549,.F.);
#787=ORIENTED_EDGE('',*,*,#594,.T.);
#788=ORIENTED_EDGE('',*,*,#576,.F.);
#789=ORIENTED_EDGE('',*,*,#595,.F.);
#790=ORIENTED_EDGE('',*,*,#552,.F.);
#791=ORIENTED_EDGE('',*,*,#596,.T.);
#792=ORIENTED_EDGE('',*,*,#577,.F.);
#793=ORIENTED_EDGE('',*,*,#594,.F.);
#794=ORIENTED_EDGE('',*,*,#551,.F.);
#795=ORIENTED_EDGE('',*,*,#597,.T.);
#796=ORIENTED_EDGE('',*,*,#578,.F.);
#797=ORIENTED_EDGE('',*,*,#596,.F.);
#798=ORIENTED_EDGE('',*,*,#550,.F.);
#799=ORIENTED_EDGE('',*,*,#595,.T.);
#800=ORIENTED_EDGE('',*,*,#579,.F.);
#801=ORIENTED_EDGE('',*,*,#597,.F.);
#802=ORIENTED_EDGE('',*,*,#556,.F.);
#803=ORIENTED_EDGE('',*,*,#589,.F.);
#804=ORIENTED_EDGE('',*,*,#573,.F.);
#805=ORIENTED_EDGE('',*,*,#575,.F.);
#806=ORIENTED_EDGE('',*,*,#533,.F.);
#807=ORIENTED_EDGE('',*,*,#598,.T.);
#808=ORIENTED_EDGE('',*,*,#599,.T.);
#809=ORIENTED_EDGE('',*,*,#600,.F.);
#810=ORIENTED_EDGE('',*,*,#536,.F.);
#811=ORIENTED_EDGE('',*,*,#601,.T.);
#812=ORIENTED_EDGE('',*,*,#602,.T.);
#813=ORIENTED_EDGE('',*,*,#598,.F.);
#814=ORIENTED_EDGE('',*,*,#535,.F.);
#815=ORIENTED_EDGE('',*,*,#603,.T.);
#816=ORIENTED_EDGE('',*,*,#604,.T.);
#817=ORIENTED_EDGE('',*,*,#601,.F.);
#818=ORIENTED_EDGE('',*,*,#534,.F.);
#819=ORIENTED_EDGE('',*,*,#600,.T.);
#820=ORIENTED_EDGE('',*,*,#605,.T.);
#821=ORIENTED_EDGE('',*,*,#603,.F.);
#822=ORIENTED_EDGE('',*,*,#605,.F.);
#823=ORIENTED_EDGE('',*,*,#599,.F.);
#824=ORIENTED_EDGE('',*,*,#602,.F.);
#825=ORIENTED_EDGE('',*,*,#604,.F.);
#826=ORIENTED_EDGE('',*,*,#537,.F.);
#827=ORIENTED_EDGE('',*,*,#606,.T.);
#828=ORIENTED_EDGE('',*,*,#607,.T.);
#829=ORIENTED_EDGE('',*,*,#608,.F.);
#830=ORIENTED_EDGE('',*,*,#540,.F.);
#831=ORIENTED_EDGE('',*,*,#609,.T.);
#832=ORIENTED_EDGE('',*,*,#610,.T.);
#833=ORIENTED_EDGE('',*,*,#606,.F.);
#834=ORIENTED_EDGE('',*,*,#539,.F.);
#835=ORIENTED_EDGE('',*,*,#611,.T.);
#836=ORIENTED_EDGE('',*,*,#612,.T.);
#837=ORIENTED_EDGE('',*,*,#609,.F.);
#838=ORIENTED_EDGE('',*,*,#538,.F.);
#839=ORIENTED_EDGE('',*,*,#608,.T.);
#840=ORIENTED_EDGE('',*,*,#613,.T.);
#841=ORIENTED_EDGE('',*,*,#611,.F.);
#842=ORIENTED_EDGE('',*,*,#613,.F.);
#843=ORIENTED_EDGE('',*,*,#607,.F.);
#844=ORIENTED_EDGE('',*,*,#610,.F.);
#845=ORIENTED_EDGE('',*,*,#612,.F.);
#846=ORIENTED_EDGE('',*,*,#541,.F.);
#847=ORIENTED_EDGE('',*,*,#614,.T.);
#848=ORIENTED_EDGE('',*,*,#615,.T.);
#849=ORIENTED_EDGE('',*,*,#616,.F.);
#850=ORIENTED_EDGE('',*,*,#544,.F.);
#851=ORIENTED_EDGE('',*,*,#617,.T.);
#852=ORIENTED_EDGE('',*,*,#618,.T.);
#853=ORIENTED_EDGE('',*,*,#614,.F.);
#854=ORIENTED_EDGE('',*,*,#543,.F.);
#855=ORIENTED_EDGE('',*,*,#619,.T.);
#856=ORIENTED_EDGE('',*,*,#620,.T.);
#857=ORIENTED_EDGE('',*,*,#617,.F.);
#858=ORIENTED_EDGE('',*,*,#542,.F.);
#859=ORIENTED_EDGE('',*,*,#616,.T.);
#860=ORIENTED_EDGE('',*,*,#621,.T.);
#861=ORIENTED_EDGE('',*,*,#619,.F.);
#862=ORIENTED_EDGE('',*,*,#621,.F.);
#863=ORIENTED_EDGE('',*,*,#615,.F.);
#864=ORIENTED_EDGE('',*,*,#618,.F.);
#865=ORIENTED_EDGE('',*,*,#620,.F.);
#866=ORIENTED_EDGE('',*,*,#545,.F.);
#867=ORIENTED_EDGE('',*,*,#622,.T.);
#868=ORIENTED_EDGE('',*,*,#623,.T.);
#869=ORIENTED_EDGE('',*,*,#624,.F.);
#870=ORIENTED_EDGE('',*,*,#548,.F.);
#871=ORIENTED_EDGE('',*,*,#625,.T.);
#872=ORIENTED_EDGE('',*,*,#626,.T.);
#873=ORIENTED_EDGE('',*,*,#622,.F.);
#874=ORIENTED_EDGE('',*,*,#547,.F.);
#875=ORIENTED_EDGE('',*,*,#627,.T.);
#876=ORIENTED_EDGE('',*,*,#628,.T.);
#877=ORIENTED_EDGE('',*,*,#625,.F.);
#878=ORIENTED_EDGE('',*,*,#546,.F.);
#879=ORIENTED_EDGE('',*,*,#624,.T.);
#880=ORIENTED_EDGE('',*,*,#629,.T.);
#881=ORIENTED_EDGE('',*,*,#627,.F.);
#882=ORIENTED_EDGE('',*,*,#629,.F.);
#883=ORIENTED_EDGE('',*,*,#623,.F.);
#884=ORIENTED_EDGE('',*,*,#626,.F.);
#885=ORIENTED_EDGE('',*,*,#628,.F.);
#886=ORIENTED_EDGE('',*,*,#528,.F.);
#887=ORIENTED_EDGE('',*,*,#531,.F.);
#888=ORIENTED_EDGE('',*,*,#529,.F.);
#889=ORIENTED_EDGE('',*,*,#517,.F.);
#890=ORIENTED_EDGE('',*,*,#501,.F.);
#891=ORIENTED_EDGE('',*,*,#532,.T.);
#892=ORIENTED_EDGE('',*,*,#519,.F.);
#893=ORIENTED_EDGE('',*,*,#505,.F.);
#894=CYLINDRICAL_SURFACE('',#971,2.);
#895=CYLINDRICAL_SURFACE('',#983,2.);
#896=CYLINDRICAL_SURFACE('',#986,2.);
#897=CYLINDRICAL_SURFACE('',#988,2.);
#898=CYLINDRICAL_SURFACE('',#991,1.);
#899=CYLINDRICAL_SURFACE('',#995,1.);
#900=CYLINDRICAL_SURFACE('',#999,1.);
#901=CYLINDRICAL_SURFACE('',#1003,1.);
#902=CYLINDRICAL_SURFACE('',#1007,2.);
#903=CYLINDRICAL_SURFACE('',#1014,2.);
#904=CYLINDRICAL_SURFACE('',#1016,2.);
#905=CYLINDRICAL_SURFACE('',#1018,2.);
#906=ADVANCED_FACE('',(#61),#894,.T.);
#907=ADVANCED_FACE('',(#62),#22,.T.);
#908=ADVANCED_FACE('',(#63),#23,.T.);
#909=ADVANCED_FACE('',(#64),#895,.T.);
#910=ADVANCED_FACE('',(#65),#24,.T.);
#911=ADVANCED_FACE('',(#66),#896,.T.);
#912=ADVANCED_FACE('',(#67),#897,.T.);
#913=ADVANCED_FACE('',(#68,#15,#16,#17,#18,#19),#25,.F.);
#914=ADVANCED_FACE('',(#69),#898,.F.);
#915=ADVANCED_FACE('',(#70),#26,.T.);
#916=ADVANCED_FACE('',(#71),#899,.F.);
#917=ADVANCED_FACE('',(#72),#27,.T.);
#918=ADVANCED_FACE('',(#73),#900,.F.);
#919=ADVANCED_FACE('',(#74),#28,.T.);
#920=ADVANCED_FACE('',(#75),#901,.F.);
#921=ADVANCED_FACE('',(#76,#20),#29,.T.);
#922=ADVANCED_FACE('',(#77),#902,.T.);
#923=ADVANCED_FACE('',(#78),#30,.T.);
#924=ADVANCED_FACE('',(#79,#21),#31,.T.);
#925=ADVANCED_FACE('',(#80),#903,.T.);
#926=ADVANCED_FACE('',(#81),#32,.T.);
#927=ADVANCED_FACE('',(#82),#904,.T.);
#928=ADVANCED_FACE('',(#83),#33,.T.);
#929=ADVANCED_FACE('',(#84),#905,.T.);
#930=ADVANCED_FACE('',(#85),#34,.F.);
#931=ADVANCED_FACE('',(#86),#35,.F.);
#932=ADVANCED_FACE('',(#87),#36,.F.);
#933=ADVANCED_FACE('',(#88),#37,.F.);
#934=ADVANCED_FACE('',(#89),#38,.T.);
#935=ADVANCED_FACE('',(#90),#39,.F.);
#936=ADVANCED_FACE('',(#91),#40,.F.);
#937=ADVANCED_FACE('',(#92),#41,.F.);
#938=ADVANCED_FACE('',(#93),#42,.F.);
#939=ADVANCED_FACE('',(#94),#43,.F.);
#940=ADVANCED_FACE('',(#95),#44,.F.);
#941=ADVANCED_FACE('',(#96),#45,.F.);
#942=ADVANCED_FACE('',(#97),#46,.F.);
#943=ADVANCED_FACE('',(#98),#47,.F.);
#944=ADVANCED_FACE('',(#99),#48,.F.);
#945=ADVANCED_FACE('',(#100),#49,.F.);
#946=ADVANCED_FACE('',(#101),#50,.F.);
#947=ADVANCED_FACE('',(#102),#51,.F.);
#948=ADVANCED_FACE('',(#103),#52,.F.);
#949=ADVANCED_FACE('',(#104),#53,.F.);
#950=ADVANCED_FACE('',(#105),#54,.F.);
#951=ADVANCED_FACE('',(#106),#55,.F.);
#952=ADVANCED_FACE('',(#107),#56,.F.);
#953=ADVANCED_FACE('',(#108),#57,.F.);
#954=ADVANCED_FACE('',(#109),#58,.F.);
#955=ADVANCED_FACE('',(#110),#59,.T.);
#956=ADVANCED_FACE('',(#111),#60,.T.);
#957=CLOSED_SHELL('',(#906,#907,#908,#909,#910,#911,#912,#913,#914,#915,
#916,#917,#918,#919,#920,#921,#922,#923,#924,#925,#926,#927,#928,#929,#930,
#931,#932,#933,#934,#935,#936,#937,#938,#939,#940,#941,#942,#943,#944,#945,
#946,#947,#948,#949,#950,#951,#952,#953,#954,#955,#956));
#958=DERIVED_UNIT_ELEMENT(#960,1.);
#959=DERIVED_UNIT_ELEMENT(#1583,-3.);
#960=(
MASS_UNIT()
NAMED_UNIT(*)
SI_UNIT(.KILO.,.GRAM.)
);
#961=DERIVED_UNIT((#958,#959));
#962=MEASURE_REPRESENTATION_ITEM('density measure',
POSITIVE_RATIO_MEASURE(7850.),#961);
#963=PROPERTY_DEFINITION_REPRESENTATION(#968,#965);
#964=PROPERTY_DEFINITION_REPRESENTATION(#969,#966);
#965=REPRESENTATION('material name',(#967),#1580);
#966=REPRESENTATION('density',(#962),#1580);
#967=DESCRIPTIVE_REPRESENTATION_ITEM('Steel','Steel');
#968=PROPERTY_DEFINITION('material property','material name',#1590);
#969=PROPERTY_DEFINITION('material property','density of part',#1590);
#970=AXIS2_PLACEMENT_3D('',#1306,#1046,#1047);
#971=AXIS2_PLACEMENT_3D('',#1307,#1048,#1049);
#972=AXIS2_PLACEMENT_3D('',#1310,#1050,#1051);
#973=AXIS2_PLACEMENT_3D('',#1314,#1053,#1054);
#974=AXIS2_PLACEMENT_3D('',#1316,#1056,#1057);
#975=AXIS2_PLACEMENT_3D('',#1322,#1061,#1062);
#976=AXIS2_PLACEMENT_3D('',#1326,#1064,#1065);
#977=AXIS2_PLACEMENT_3D('',#1330,#1067,#1068);
#978=AXIS2_PLACEMENT_3D('',#1334,#1070,#1071);
#979=AXIS2_PLACEMENT_3D('',#1338,#1073,#1074);
#980=AXIS2_PLACEMENT_3D('',#1342,#1076,#1077);
#981=AXIS2_PLACEMENT_3D('',#1346,#1079,#1080);
#982=AXIS2_PLACEMENT_3D('',#1349,#1082,#1083);
#983=AXIS2_PLACEMENT_3D('',#1350,#1084,#1085);
#984=AXIS2_PLACEMENT_3D('',#1354,#1087,#1088);
#985=AXIS2_PLACEMENT_3D('',#1356,#1090,#1091);
#986=AXIS2_PLACEMENT_3D('',#1365,#1097,#1098);
#987=AXIS2_PLACEMENT_3D('',#1367,#1099,#1100);
#988=AXIS2_PLACEMENT_3D('',#1369,#1102,#1103);
#989=AXIS2_PLACEMENT_3D('',#1372,#1105,#1106);
#990=AXIS2_PLACEMENT_3D('',#1373,#1107,#1108);
#991=AXIS2_PLACEMENT_3D('',#1416,#1131,#1132);
#992=AXIS2_PLACEMENT_3D('',#1419,#1133,#1134);
#993=AXIS2_PLACEMENT_3D('',#1423,#1136,#1137);
#994=AXIS2_PLACEMENT_3D('',#1425,#1139,#1140);
#995=AXIS2_PLACEMENT_3D('',#1431,#1144,#1145);
#996=AXIS2_PLACEMENT_3D('',#1433,#1146,#1147);
#997=AXIS2_PLACEMENT_3D('',#1436,#1149,#1150);
#998=AXIS2_PLACEMENT_3D('',#1437,#1151,#1152);
#999=AXIS2_PLACEMENT_3D('',#1443,#1156,#1157);
#1000=AXIS2_PLACEMENT_3D('',#1445,#1158,#1159);
#1001=AXIS2_PLACEMENT_3D('',#1448,#1161,#1162);
#1002=AXIS2_PLACEMENT_3D('',#1449,#1163,#1164);
#1003=AXIS2_PLACEMENT_3D('',#1455,#1168,#1169);
#1004=AXIS2_PLACEMENT_3D('',#1457,#1170,#1171);
#1005=AXIS2_PLACEMENT_3D('',#1460,#1173,#1174);
#1006=AXIS2_PLACEMENT_3D('',#1461,#1175,#1176);
#1007=AXIS2_PLACEMENT_3D('',#1471,#1182,#1183);
#1008=AXIS2_PLACEMENT_3D('',#1473,#1184,#1185);
#1009=AXIS2_PLACEMENT_3D('',#1475,#1187,#1188);
#1010=AXIS2_PLACEMENT_3D('',#1479,#1191,#1192);
#1011=AXIS2_PLACEMENT_3D('',#1481,#1193,#1194);
#1012=AXIS2_PLACEMENT_3D('',#1485,#1196,#1197);
#1013=AXIS2_PLACEMENT_3D('',#1488,#1199,#1200);
#1014=AXIS2_PLACEMENT_3D('',#1490,#1202,#1203);
#1015=AXIS2_PLACEMENT_3D('',#1492,#1205,#1206);
#1016=AXIS2_PLACEMENT_3D('',#1494,#1208,#1209);
#1017=AXIS2_PLACEMENT_3D('',#1496,#1211,#1212);
#1018=AXIS2_PLACEMENT_3D('',#1498,#1214,#1215);
#1019=AXIS2_PLACEMENT_3D('',#1499,#1216,#1217);
#1020=AXIS2_PLACEMENT_3D('',#1502,#1220,#1221);
#1021=AXIS2_PLACEMENT_3D('',#1504,#1223,#1224);
#1022=AXIS2_PLACEMENT_3D('',#1506,#1226,#1227);
#1023=AXIS2_PLACEMENT_3D('',#1507,#1228,#1229);
#1024=AXIS2_PLACEMENT_3D('',#1508,#1230,#1231);
#1025=AXIS2_PLACEMENT_3D('',#1514,#1235,#1236);
#1026=AXIS2_PLACEMENT_3D('',#1518,#1239,#1240);
#1027=AXIS2_PLACEMENT_3D('',#1522,#1243,#1244);
#1028=AXIS2_PLACEMENT_3D('',#1524,#1246,#1247);
#1029=AXIS2_PLACEMENT_3D('',#1525,#1248,#1249);
#1030=AXIS2_PLACEMENT_3D('',#1531,#1253,#1254);
#1031=AXIS2_PLACEMENT_3D('',#1535,#1257,#1258);
#1032=AXIS2_PLACEMENT_3D('',#1539,#1261,#1262);
#1033=AXIS2_PLACEMENT_3D('',#1541,#1264,#1265);
#1034=AXIS2_PLACEMENT_3D('',#1542,#1266,#1267);
#1035=AXIS2_PLACEMENT_3D('',#1548,#1271,#1272);
#1036=AXIS2_PLACEMENT_3D('',#1552,#1275,#1276);
#1037=AXIS2_PLACEMENT_3D('',#1556,#1279,#1280);
#1038=AXIS2_PLACEMENT_3D('',#1558,#1282,#1283);
#1039=AXIS2_PLACEMENT_3D('',#1559,#1284,#1285);
#1040=AXIS2_PLACEMENT_3D('',#1565,#1289,#1290);
#1041=AXIS2_PLACEMENT_3D('',#1569,#1293,#1294);
#1042=AXIS2_PLACEMENT_3D('',#1573,#1297,#1298);
#1043=AXIS2_PLACEMENT_3D('',#1575,#1300,#1301);
#1044=AXIS2_PLACEMENT_3D('',#1576,#1302,#1303);
#1045=AXIS2_PLACEMENT_3D('',#1577,#1304,#1305);
#1046=DIRECTION('axis',(0.,0.,1.));
#1047=DIRECTION('refdir',(1.,0.,0.));
#1048=DIRECTION('center_axis',(0.,0.,1.));
#1049=DIRECTION('ref_axis',(-0.707106781186554,-0.707106781186541,0.));
#1050=DIRECTION('center_axis',(0.,0.,-1.));
#1051=DIRECTION('ref_axis',(-0.707106781186554,-0.707106781186541,0.));
#1052=DIRECTION('',(0.,0.,-1.));
#1053=DIRECTION('center_axis',(0.,0.,1.));
#1054=DIRECTION('ref_axis',(-0.707106781186554,-0.707106781186541,0.));
#1055=DIRECTION('',(0.,0.,1.));
#1056=DIRECTION('center_axis',(-1.,3.41607084500048E-16,0.));
#1057=DIRECTION('ref_axis',(-3.41607084500048E-16,-1.,0.));
#1058=DIRECTION('',(-3.41607084500048E-16,-1.,0.));
#1059=DIRECTION('',(0.,0.,1.));
#1060=DIRECTION('',(3.41607084500048E-16,1.,0.));
#1061=DIRECTION('center_axis',(0.,0.,1.));
#1062=DIRECTION('ref_axis',(1.,0.,0.));
#1063=DIRECTION('',(1.,0.,0.));
#1064=DIRECTION('center_axis',(0.,0.,-1.));
#1065=DIRECTION('ref_axis',(0.707106781186553,-0.707106781186542,0.));
#1066=DIRECTION('',(0.,1.,0.));
#1067=DIRECTION('center_axis',(0.,0.,-1.));
#1068=DIRECTION('ref_axis',(0.707106781186552,-0.707106781186543,0.));
#1069=DIRECTION('',(-1.,0.,0.));
#1070=DIRECTION('center_axis',(0.,0.,-1.));
#1071=DIRECTION('ref_axis',(-0.707106781186554,-0.707106781186541,0.));
#1072=DIRECTION('',(0.,1.,0.));
#1073=DIRECTION('center_axis',(0.,0.,-1.));
#1074=DIRECTION('ref_axis',(-0.707106781186548,0.707106781186548,0.));
#1075=DIRECTION('',(1.,0.,0.));
#1076=DIRECTION('center_axis',(0.,0.,-1.));
#1077=DIRECTION('ref_axis',(0.707106781186548,0.707106781186548,0.));
#1078=DIRECTION('',(0.,1.,0.));
#1079=DIRECTION('center_axis',(0.,0.,-1.));
#1080=DIRECTION('ref_axis',(0.70710678118656,0.707106781186535,0.));
#1081=DIRECTION('',(-1.,2.97298215799205E-16,0.));
#1082=DIRECTION('center_axis',(0.,0.,-1.));
#1083=DIRECTION('ref_axis',(-0.70710678118656,0.707106781186535,0.));
#1084=DIRECTION('center_axis',(0.,0.,1.));
#1085=DIRECTION('ref_axis',(0.707106781186553,-0.707106781186542,0.));
#1086=DIRECTION('',(0.,0.,-1.));
#1087=DIRECTION('center_axis',(0.,0.,1.));
#1088=DIRECTION('ref_axis',(0.707106781186553,-0.707106781186542,0.));
#1089=DIRECTION('',(0.,0.,1.));
#1090=DIRECTION('center_axis',(1.,0.,0.));
#1091=DIRECTION('ref_axis',(0.,1.,0.));
#1092=DIRECTION('',(0.,-1.,0.));
#1093=DIRECTION('',(0.,0.,-1.));
#1094=DIRECTION('',(0.,0.,-1.));
#1095=DIRECTION('',(0.,1.,0.));
#1096=DIRECTION('',(0.,0.,1.));
#1097=DIRECTION('center_axis',(0.,0.,1.));
#1098=DIRECTION('ref_axis',(0.70710678118656,0.707106781186535,0.));
#1099=DIRECTION('center_axis',(0.,0.,1.));
#1100=DIRECTION('ref_axis',(0.70710678118656,0.707106781186535,0.));
#1101=DIRECTION('',(0.,0.,1.));
#1102=DIRECTION('center_axis',(0.,0.,1.));
#1103=DIRECTION('ref_axis',(-0.70710678118656,0.707106781186535,0.));
#1104=DIRECTION('',(0.,0.,-1.));
#1105=DIRECTION('center_axis',(0.,0.,1.));
#1106=DIRECTION('ref_axis',(-0.70710678118656,0.707106781186535,0.));
#1107=DIRECTION('center_axis',(0.,0.,1.));
#1108=DIRECTION('ref_axis',(1.,0.,0.));
#1109=DIRECTION('',(1.,-2.97298215799205E-16,0.));
#1110=DIRECTION('',(1.,0.,0.));
#1111=DIRECTION('',(-1.,0.,0.));
#1112=DIRECTION('',(0.,-1.,0.));
#1113=DIRECTION('',(1.,0.,0.));
#1114=DIRECTION('',(0.,1.,0.));
#1115=DIRECTION('',(1.,0.,0.));
#1116=DIRECTION('',(-1.77635683940026E-14,1.,0.));
#1117=DIRECTION('',(-1.,0.,0.));
#1118=DIRECTION('',(-3.55271367880051E-14,-1.,0.));
#1119=DIRECTION('',(0.,1.,0.));
#1120=DIRECTION('',(-1.,0.,0.));
#1121=DIRECTION('',(-1.77635683940026E-14,-1.,0.));
#1122=DIRECTION('',(1.,0.,0.));
#1123=DIRECTION('',(1.,-3.55271367880045E-14,0.));
#1124=DIRECTION('',(0.,1.,0.));
#1125=DIRECTION('',(-1.,0.,0.));
#1126=DIRECTION('',(0.,-1.,0.));
#1127=DIRECTION('',(0.,-1.,0.));
#1128=DIRECTION('',(1.,0.,0.));
#1129=DIRECTION('',(0.,1.,0.));
#1130=DIRECTION('',(-1.,0.,0.));
#1131=DIRECTION('center_axis',(0.,0.,1.));
#1132=DIRECTION('ref_axis',(0.707106781186529,-0.707106781186566,0.));
#1133=DIRECTION('center_axis',(0.,0.,1.));
#1134=DIRECTION('ref_axis',(0.707106781186529,-0.707106781186566,0.));
#1135=DIRECTION('',(0.,0.,1.));
#1136=DIRECTION('center_axis',(0.,0.,1.));
#1137=DIRECTION('ref_axis',(0.707106781186529,-0.707106781186566,0.));
#1138=DIRECTION('',(0.,0.,-1.));
#1139=DIRECTION('center_axis',(0.,1.,0.));
#1140=DIRECTION('ref_axis',(-1.,0.,0.));
#1141=DIRECTION('',(1.,0.,0.));
#1142=DIRECTION('',(0.,0.,-1.));
#1143=DIRECTION('',(-1.,0.,0.));
#1144=DIRECTION('center_axis',(0.,0.,1.));
#1145=DIRECTION('ref_axis',(-0.707106781186579,-0.707106781186516,0.));
#1146=DIRECTION('center_axis',(0.,0.,1.));
#1147=DIRECTION('ref_axis',(-0.707106781186579,-0.707106781186516,0.));
#1148=DIRECTION('',(0.,0.,1.));
#1149=DIRECTION('center_axis',(0.,0.,1.));
#1150=DIRECTION('ref_axis',(-0.707106781186579,-0.707106781186516,0.));
#1151=DIRECTION('center_axis',(1.,0.,0.));
#1152=DIRECTION('ref_axis',(0.,1.,0.));
#1153=DIRECTION('',(0.,-1.,0.));
#1154=DIRECTION('',(0.,0.,-1.));
#1155=DIRECTION('',(0.,1.,0.));
#1156=DIRECTION('center_axis',(0.,0.,1.));
#1157=DIRECTION('ref_axis',(-0.707106781186522,0.707106781186573,0.));
#1158=DIRECTION('center_axis',(0.,0.,1.));
#1159=DIRECTION('ref_axis',(-0.707106781186522,0.707106781186573,0.));
#1160=DIRECTION('',(0.,0.,1.));
#1161=DIRECTION('center_axis',(0.,0.,1.));
#1162=DIRECTION('ref_axis',(-0.707106781186522,0.707106781186573,0.));
#1163=DIRECTION('center_axis',(0.,-1.,0.));
#1164=DIRECTION('ref_axis',(1.,0.,0.));
#1165=DIRECTION('',(-1.,0.,0.));
#1166=DIRECTION('',(0.,0.,-1.));
#1167=DIRECTION('',(1.,0.,0.));
#1168=DIRECTION('center_axis',(0.,0.,1.));
#1169=DIRECTION('ref_axis',(0.707106781186573,0.707106781186523,0.));
#1170=DIRECTION('center_axis',(0.,0.,1.));
#1171=DIRECTION('ref_axis',(0.707106781186573,0.707106781186523,0.));
#1172=DIRECTION('',(0.,0.,1.));
#1173=DIRECTION('center_axis',(0.,0.,1.));
#1174=DIRECTION('ref_axis',(0.707106781186573,0.707106781186523,0.));
#1175=DIRECTION('center_axis',(0.,0.,1.));
#1176=DIRECTION('ref_axis',(1.,0.,0.));
#1177=DIRECTION('',(0.,1.,0.));
#1178=DIRECTION('',(0.,1.,0.));
#1179=DIRECTION('',(1.,0.,0.));
#1180=DIRECTION('',(0.,-1.,0.));
#1181=DIRECTION('',(-1.,0.,0.));
#1182=DIRECTION('center_axis',(0.,0.,1.));
#1183=DIRECTION('ref_axis',(0.707106781186552,-0.707106781186543,0.));
#1184=DIRECTION('center_axis',(0.,0.,-1.));
#1185=DIRECTION('ref_axis',(0.707106781186552,-0.707106781186543,0.));
#1186=DIRECTION('',(0.,0.,-1.));
#1187=DIRECTION('center_axis',(0.,-1.,0.));
#1188=DIRECTION('ref_axis',(1.,0.,0.));
#1189=DIRECTION('',(1.,0.,0.));
#1190=DIRECTION('',(0.,0.,1.));
#1191=DIRECTION('center_axis',(0.,0.,1.));
#1192=DIRECTION('ref_axis',(1.,0.,0.));
#1193=DIRECTION('center_axis',(0.,0.,-1.));
#1194=DIRECTION('ref_axis',(0.707106781186548,0.707106781186548,0.));
#1195=DIRECTION('',(-1.,0.,0.));
#1196=DIRECTION('center_axis',(0.,0.,-1.));
#1197=DIRECTION('ref_axis',(-0.707106781186548,0.707106781186548,0.));
#1198=DIRECTION('',(0.,-1.,0.));
#1199=DIRECTION('center_axis',(0.,0.,-1.));
#1200=DIRECTION('ref_axis',(-0.707106781186554,-0.707106781186541,0.));
#1201=DIRECTION('',(0.,-1.,0.));
#1202=DIRECTION('center_axis',(0.,0.,1.));
#1203=DIRECTION('ref_axis',(-0.707106781186554,-0.707106781186541,0.));
#1204=DIRECTION('',(0.,0.,-1.));
#1205=DIRECTION('center_axis',(-1.,0.,0.));
#1206=DIRECTION('ref_axis',(0.,-1.,0.));
#1207=DIRECTION('',(0.,0.,1.));
#1208=DIRECTION('center_axis',(0.,0.,1.));
#1209=DIRECTION('ref_axis',(0.707106781186548,0.707106781186548,0.));
#1210=DIRECTION('',(0.,0.,1.));
#1211=DIRECTION('center_axis',(0.,1.,0.));
#1212=DIRECTION('ref_axis',(-1.,0.,0.));
#1213=DIRECTION('',(0.,0.,-1.));
#1214=DIRECTION('center_axis',(0.,0.,1.));
#1215=DIRECTION('ref_axis',(-0.707106781186548,0.707106781186548,0.));
#1216=DIRECTION('center_axis',(-1.,0.,0.));
#1217=DIRECTION('ref_axis',(0.,-1.,0.));
#1218=DIRECTION('',(0.,0.,1.));
#1219=DIRECTION('',(0.,0.,1.));
#1220=DIRECTION('center_axis',(0.,1.,0.));
#1221=DIRECTION('ref_axis',(-1.,0.,0.));
#1222=DIRECTION('',(0.,0.,1.));
#1223=DIRECTION('center_axis',(1.,0.,0.));
#1224=DIRECTION('ref_axis',(0.,1.,0.));
#1225=DIRECTION('',(0.,0.,1.));
#1226=DIRECTION('center_axis',(0.,-1.,0.));
#1227=DIRECTION('ref_axis',(1.,0.,0.));
#1228=DIRECTION('center_axis',(-1.,0.,0.));
#1229=DIRECTION('ref_axis',(0.,-1.,0.));
#1230=DIRECTION('center_axis',(0.,1.,0.));
#1231=DIRECTION('ref_axis',(-1.,0.,0.));
#1232=DIRECTION('',(0.,0.,1.));
#1233=DIRECTION('',(-1.,0.,0.));
#1234=DIRECTION('',(0.,0.,1.));
#1235=DIRECTION('center_axis',(1.,0.,0.));
#1236=DIRECTION('ref_axis',(0.,1.,0.));
#1237=DIRECTION('',(0.,0.,1.));
#1238=DIRECTION('',(0.,1.,0.));
#1239=DIRECTION('center_axis',(0.,-1.,0.));
#1240=DIRECTION('ref_axis',(1.,0.,0.));
#1241=DIRECTION('',(0.,0.,1.));
#1242=DIRECTION('',(1.,0.,0.));
#1243=DIRECTION('center_axis',(-1.,0.,0.));
#1244=DIRECTION('ref_axis',(0.,-1.,0.));
#1245=DIRECTION('',(0.,-1.,0.));
#1246=DIRECTION('center_axis',(0.,0.,1.));
#1247=DIRECTION('ref_axis',(1.,0.,0.));
#1248=DIRECTION('center_axis',(0.,-1.,0.));
#1249=DIRECTION('ref_axis',(1.,0.,0.));
#1250=DIRECTION('',(0.,0.,1.));
#1251=DIRECTION('',(1.,0.,0.));
#1252=DIRECTION('',(0.,0.,1.));
#1253=DIRECTION('center_axis',(-1.,3.55271367880051E-14,0.));
#1254=DIRECTION('ref_axis',(-3.55271367880051E-14,-1.,0.));
#1255=DIRECTION('',(0.,0.,1.));
#1256=DIRECTION('',(-3.55271367880051E-14,-1.,0.));
#1257=DIRECTION('center_axis',(0.,1.,0.));
#1258=DIRECTION('ref_axis',(-1.,0.,0.));
#1259=DIRECTION('',(0.,0.,1.));
#1260=DIRECTION('',(-1.,0.,0.));
#1261=DIRECTION('center_axis',(1.,1.77635683940026E-14,0.));
#1262=DIRECTION('ref_axis',(-1.77635683940026E-14,1.,0.));
#1263=DIRECTION('',(-1.77635683940026E-14,1.,0.));
#1264=DIRECTION('center_axis',(0.,0.,1.));
#1265=DIRECTION('ref_axis',(1.,0.,0.));
#1266=DIRECTION('center_axis',(1.,0.,0.));
#1267=DIRECTION('ref_axis',(0.,1.,0.));
#1268=DIRECTION('',(0.,0.,1.));
#1269=DIRECTION('',(0.,1.,0.));
#1270=DIRECTION('',(0.,0.,1.));
#1271=DIRECTION('center_axis',(0.,-1.,0.));
#1272=DIRECTION('ref_axis',(1.,0.,0.));
#1273=DIRECTION('',(0.,0.,1.));
#1274=DIRECTION('',(1.,0.,0.));
#1275=DIRECTION('center_axis',(-1.,1.77635683940026E-14,0.));
#1276=DIRECTION('ref_axis',(-1.77635683940026E-14,-1.,0.));
#1277=DIRECTION('',(0.,0.,1.));
#1278=DIRECTION('',(-1.77635683940026E-14,-1.,0.));
#1279=DIRECTION('center_axis',(0.,1.,0.));
#1280=DIRECTION('ref_axis',(-1.,0.,0.));
#1281=DIRECTION('',(-1.,0.,0.));
#1282=DIRECTION('center_axis',(0.,0.,1.));
#1283=DIRECTION('ref_axis',(1.,0.,0.));
#1284=DIRECTION('center_axis',(-3.55271367880045E-14,-1.,0.));
#1285=DIRECTION('ref_axis',(1.,-3.55271367880045E-14,0.));
#1286=DIRECTION('',(0.,0.,1.));
#1287=DIRECTION('',(1.,-3.55271367880045E-14,0.));
#1288=DIRECTION('',(0.,0.,1.));
#1289=DIRECTION('center_axis',(-1.,0.,0.));
#1290=DIRECTION('ref_axis',(0.,-1.,0.));
#1291=DIRECTION('',(0.,0.,1.));
#1292=DIRECTION('',(0.,-1.,0.));
#1293=DIRECTION('center_axis',(0.,1.,0.));
#1294=DIRECTION('ref_axis',(-1.,0.,0.));
#1295=DIRECTION('',(0.,0.,1.));
#1296=DIRECTION('',(-1.,0.,0.));
#1297=DIRECTION('center_axis',(1.,0.,0.));
#1298=DIRECTION('ref_axis',(0.,1.,0.));
#1299=DIRECTION('',(0.,1.,0.));
#1300=DIRECTION('center_axis',(0.,0.,1.));
#1301=DIRECTION('ref_axis',(1.,0.,0.));
#1302=DIRECTION('center_axis',(2.97298215799205E-16,1.,0.));
#1303=DIRECTION('ref_axis',(-1.,2.97298215799205E-16,0.));
#1304=DIRECTION('center_axis',(0.,-1.,0.));
#1305=DIRECTION('ref_axis',(1.,0.,0.));
#1306=CARTESIAN_POINT('',(0.,0.,0.));
#1307=CARTESIAN_POINT('Origin',(395.,-5.99999999999998,0.));
#1308=CARTESIAN_POINT('',(395.,-7.99999999999997,7.));
#1309=CARTESIAN_POINT('',(393.,-5.99999999999998,7.));
#1310=CARTESIAN_POINT('Origin',(395.,-5.99999999999998,7.));
#1311=CARTESIAN_POINT('',(393.,-5.99999999999998,0.));
#1312=CARTESIAN_POINT('',(393.,-5.99999999999998,0.));
#1313=CARTESIAN_POINT('',(395.,-7.99999999999997,0.));
#1314=CARTESIAN_POINT('Origin',(395.,-5.99999999999998,0.));
#1315=CARTESIAN_POINT('',(395.,-7.99999999999997,0.));
#1316=CARTESIAN_POINT('Origin',(393.,207.,0.));
#1317=CARTESIAN_POINT('',(393.,205.,7.));
#1318=CARTESIAN_POINT('',(393.,-1.00000000000009,7.));
#1319=CARTESIAN_POINT('',(393.,205.,0.));
#1320=CARTESIAN_POINT('',(393.,205.,0.));
#1321=CARTESIAN_POINT('',(393.,-1.00000000000009,0.));
#1322=CARTESIAN_POINT('Origin',(512.5,99.5,7.));
#1323=CARTESIAN_POINT('',(630.,-7.99999999999997,7.));
#1324=CARTESIAN_POINT('',(393.,-7.99999999999997,7.));
#1325=CARTESIAN_POINT('',(632.,-5.99999999999997,7.));
#1326=CARTESIAN_POINT('Origin',(630.,-5.99999999999997,7.));
#1327=CARTESIAN_POINT('',(632.,17.15,7.));
#1328=CARTESIAN_POINT('',(632.,-4.49999999999605,7.));
#1329=CARTESIAN_POINT('',(630.,15.15,7.));
#1330=CARTESIAN_POINT('Origin',(630.,17.15,7.));
#1331=CARTESIAN_POINT('',(419.9,15.15,7.));
#1332=CARTESIAN_POINT('',(465.2,15.15,7.));
#1333=CARTESIAN_POINT('',(417.9,17.1499999999999,7.));
#1334=CARTESIAN_POINT('Origin',(419.9,17.1499999999999,7.));
#1335=CARTESIAN_POINT('',(417.9,181.85,7.));
#1336=CARTESIAN_POINT('',(417.9,141.675,7.));
#1337=CARTESIAN_POINT('',(419.9,183.85,7.));
#1338=CARTESIAN_POINT('Origin',(419.9,181.85,7.));
#1339=CARTESIAN_POINT('',(630.,183.85,7.));
#1340=CARTESIAN_POINT('',(572.25,183.85,7.));
#1341=CARTESIAN_POINT('',(632.,181.85,7.));
#1342=CARTESIAN_POINT('Origin',(630.,181.85,7.));
#1343=CARTESIAN_POINT('',(632.,205.,7.));
#1344=CARTESIAN_POINT('',(632.,-4.49999999999605,7.));
#1345=CARTESIAN_POINT('',(630.,207.,7.));
#1346=CARTESIAN_POINT('Origin',(630.,205.,7.));
#1347=CARTESIAN_POINT('',(395.,207.,7.));
#1348=CARTESIAN_POINT('',(393.,207.,7.));
#1349=CARTESIAN_POINT('Origin',(395.,205.,7.));
#1350=CARTESIAN_POINT('Origin',(630.,-5.99999999999997,0.));
#1351=CARTESIAN_POINT('',(630.,-7.99999999999997,0.));
#1352=CARTESIAN_POINT('',(630.,-7.99999999999997,0.));
#1353=CARTESIAN_POINT('',(632.,-5.99999999999997,0.));
#1354=CARTESIAN_POINT('Origin',(630.,-5.99999999999997,0.));
#1355=CARTESIAN_POINT('',(632.,-5.99999999999997,0.));
#1356=CARTESIAN_POINT('Origin',(632.,-7.99999999999606,0.));
#1357=CARTESIAN_POINT('',(632.,205.,0.));
#1358=CARTESIAN_POINT('',(632.,-4.49999999999605,0.));
#1359=CARTESIAN_POINT('',(632.,205.,0.));
#1360=CARTESIAN_POINT('',(632.,181.85,14.));
#1361=CARTESIAN_POINT('',(632.,181.85,0.));
#1362=CARTESIAN_POINT('',(632.,17.15,14.));
#1363=CARTESIAN_POINT('',(632.,20.15,14.));
#1364=CARTESIAN_POINT('',(632.,17.15,0.));
#1365=CARTESIAN_POINT('Origin',(630.,205.,0.));
#1366=CARTESIAN_POINT('',(630.,207.,0.));
#1367=CARTESIAN_POINT('Origin',(630.,205.,0.));
#1368=CARTESIAN_POINT('',(630.,207.,0.));
#1369=CARTESIAN_POINT('Origin',(395.,205.,0.));
#1370=CARTESIAN_POINT('',(395.,207.,0.));
#1371=CARTESIAN_POINT('',(395.,207.,0.));
#1372=CARTESIAN_POINT('Origin',(395.,205.,0.));
#1373=CARTESIAN_POINT('Origin',(512.5,99.5,0.));
#1374=CARTESIAN_POINT('',(393.,207.,0.));
#1375=CARTESIAN_POINT('',(393.,-7.99999999999997,0.));
#1376=CARTESIAN_POINT('',(398.5,-2.5,0.));
#1377=CARTESIAN_POINT('',(394.5,-2.5,0.));
#1378=CARTESIAN_POINT('',(455.5,-2.5,0.));
#1379=CARTESIAN_POINT('',(394.5,-6.49999999999999,0.));
#1380=CARTESIAN_POINT('',(394.5,48.5,0.));
#1381=CARTESIAN_POINT('',(398.5,-6.49999999999999,0.));
#1382=CARTESIAN_POINT('',(453.5,-6.49999999999999,0.));
#1383=CARTESIAN_POINT('',(398.5,46.5,0.));
#1384=CARTESIAN_POINT('',(623.,201.5,0.));
#1385=CARTESIAN_POINT('',(627.,201.5,0.));
#1386=CARTESIAN_POINT('',(567.75,201.5,0.));
#1387=CARTESIAN_POINT('',(627.,205.5,0.));
#1388=CARTESIAN_POINT('',(627.000000000001,150.500000000001,0.));
#1389=CARTESIAN_POINT('',(623.,205.5,0.));
#1390=CARTESIAN_POINT('',(569.75,205.5,0.));
#1391=CARTESIAN_POINT('',(622.999999999998,152.499999999998,0.));
#1392=CARTESIAN_POINT('',(627.,-6.49999999999608,0.));
#1393=CARTESIAN_POINT('',(627.,-2.49999999999609,0.));
#1394=CARTESIAN_POINT('',(627.,46.500000000002,0.));
#1395=CARTESIAN_POINT('',(623.,-2.49999999999609,0.));
#1396=CARTESIAN_POINT('',(569.75,-2.49999999999609,0.));
#1397=CARTESIAN_POINT('',(623.,-6.49999999999608,0.));
#1398=CARTESIAN_POINT('',(623.000000000001,48.500000000001,0.));
#1399=CARTESIAN_POINT('',(567.75,-6.49999999999608,0.));
#1400=CARTESIAN_POINT('',(394.5,201.5,0.));
#1401=CARTESIAN_POINT('',(398.5,201.5,0.));
#1402=CARTESIAN_POINT('',(453.500000000002,201.499999999998,0.));
#1403=CARTESIAN_POINT('',(398.5,205.5,0.));
#1404=CARTESIAN_POINT('',(398.5,150.5,0.));
#1405=CARTESIAN_POINT('',(394.5,205.5,0.));
#1406=CARTESIAN_POINT('',(455.5,205.5,0.));
#1407=CARTESIAN_POINT('',(394.5,152.5,0.));
#1408=CARTESIAN_POINT('',(447.9,155.85,0.));
#1409=CARTESIAN_POINT('',(447.9,43.1499999999999,0.));
#1410=CARTESIAN_POINT('',(447.9,127.675,0.));
#1411=CARTESIAN_POINT('',(602.,43.1499999999999,0.));
#1412=CARTESIAN_POINT('',(480.2,43.1499999999999,0.));
#1413=CARTESIAN_POINT('',(602.,155.85,0.));
#1414=CARTESIAN_POINT('',(602.,71.325,0.));
#1415=CARTESIAN_POINT('',(557.25,155.85,0.));
#1416=CARTESIAN_POINT('Origin',(626.,21.1499999999999,0.));
#1417=CARTESIAN_POINT('',(626.,20.15,7.));
#1418=CARTESIAN_POINT('',(627.,21.1499999999999,7.));
#1419=CARTESIAN_POINT('Origin',(626.,21.1499999999999,7.));
#1420=CARTESIAN_POINT('',(626.,20.15,14.));
#1421=CARTESIAN_POINT('',(626.,20.15,0.));
#1422=CARTESIAN_POINT('',(627.,21.1499999999999,14.));
#1423=CARTESIAN_POINT('Origin',(626.,21.1499999999999,14.));
#1424=CARTESIAN_POINT('',(627.,21.1499999999999,0.));
#1425=CARTESIAN_POINT('Origin',(627.,20.15,0.));
#1426=CARTESIAN_POINT('',(423.9,20.15,7.));
#1427=CARTESIAN_POINT('',(569.75,20.15,7.));
#1428=CARTESIAN_POINT('',(423.9,20.15,14.));
#1429=CARTESIAN_POINT('',(423.9,20.15,0.));
#1430=CARTESIAN_POINT('',(627.,20.15,14.));
#1431=CARTESIAN_POINT('Origin',(423.9,21.1499999999999,0.));
#1432=CARTESIAN_POINT('',(422.9,21.1499999999999,7.));
#1433=CARTESIAN_POINT('Origin',(423.9,21.1499999999999,7.));
#1434=CARTESIAN_POINT('',(422.9,21.1499999999999,14.));
#1435=CARTESIAN_POINT('',(422.9,21.1499999999999,0.));
#1436=CARTESIAN_POINT('Origin',(423.9,21.1499999999999,14.));
#1437=CARTESIAN_POINT('Origin',(422.9,20.15,0.));
#1438=CARTESIAN_POINT('',(422.9,177.85,7.));
#1439=CARTESIAN_POINT('',(422.9,59.825,7.));
#1440=CARTESIAN_POINT('',(422.9,177.85,14.));
#1441=CARTESIAN_POINT('',(422.9,177.85,0.));
#1442=CARTESIAN_POINT('',(422.9,155.85,14.));
#1443=CARTESIAN_POINT('Origin',(423.9,177.85,0.));
#1444=CARTESIAN_POINT('',(423.9,178.85,7.));
#1445=CARTESIAN_POINT('Origin',(423.9,177.85,7.));
#1446=CARTESIAN_POINT('',(423.9,178.85,14.));
#1447=CARTESIAN_POINT('',(423.9,178.85,0.));
#1448=CARTESIAN_POINT('Origin',(423.9,177.85,14.));
#1449=CARTESIAN_POINT('Origin',(422.9,178.85,0.));
#1450=CARTESIAN_POINT('',(626.,178.85,7.));
#1451=CARTESIAN_POINT('',(467.7,178.85,7.));
#1452=CARTESIAN_POINT('',(626.,178.85,14.));
#1453=CARTESIAN_POINT('',(626.,178.85,0.));
#1454=CARTESIAN_POINT('',(422.9,178.85,14.));
#1455=CARTESIAN_POINT('Origin',(626.,177.85,0.));
#1456=CARTESIAN_POINT('',(627.,177.85,7.));
#1457=CARTESIAN_POINT('Origin',(626.,177.85,7.));
#1458=CARTESIAN_POINT('',(627.,177.85,14.));
#1459=CARTESIAN_POINT('',(627.,177.85,0.));
#1460=CARTESIAN_POINT('Origin',(626.,177.85,14.));
#1461=CARTESIAN_POINT('Origin',(512.5,99.5,7.));
#1462=CARTESIAN_POINT('',(627.,139.175,7.));
#1463=CARTESIAN_POINT('',(447.9,43.1499999999999,7.));
#1464=CARTESIAN_POINT('',(447.9,155.85,7.));
#1465=CARTESIAN_POINT('',(447.9,127.675,7.));
#1466=CARTESIAN_POINT('',(602.,155.85,7.));
#1467=CARTESIAN_POINT('',(557.25,155.85,7.));
#1468=CARTESIAN_POINT('',(602.,43.1499999999999,7.));
#1469=CARTESIAN_POINT('',(602.,71.325,7.));
#1470=CARTESIAN_POINT('',(480.2,43.1499999999999,7.));
#1471=CARTESIAN_POINT('Origin',(630.,17.15,0.));
#1472=CARTESIAN_POINT('',(630.,15.15,14.));
#1473=CARTESIAN_POINT('Origin',(630.,17.15,14.));
#1474=CARTESIAN_POINT('',(630.,15.15,0.));
#1475=CARTESIAN_POINT('Origin',(417.9,15.15,0.));
#1476=CARTESIAN_POINT('',(419.9,15.15,14.));
#1477=CARTESIAN_POINT('',(417.9,15.15,14.));
#1478=CARTESIAN_POINT('',(419.9,15.15,0.));
#1479=CARTESIAN_POINT('Origin',(524.95,99.4999999999999,14.));
#1480=CARTESIAN_POINT('',(630.,183.85,14.));
#1481=CARTESIAN_POINT('Origin',(630.,181.85,14.));
#1482=CARTESIAN_POINT('',(419.9,183.85,14.));
#1483=CARTESIAN_POINT('',(417.9,183.85,14.));
#1484=CARTESIAN_POINT('',(417.9,181.85,14.));
#1485=CARTESIAN_POINT('Origin',(419.9,181.85,14.));
#1486=CARTESIAN_POINT('',(417.9,17.1499999999999,14.));
#1487=CARTESIAN_POINT('',(417.9,15.15,14.));
#1488=CARTESIAN_POINT('Origin',(419.9,17.1499999999999,14.));
#1489=CARTESIAN_POINT('',(627.,178.85,14.));
#1490=CARTESIAN_POINT('Origin',(419.9,17.1499999999999,0.));
#1491=CARTESIAN_POINT('',(417.9,17.1499999999999,0.));
#1492=CARTESIAN_POINT('Origin',(417.9,183.85,0.));
#1493=CARTESIAN_POINT('',(417.9,181.85,0.));
#1494=CARTESIAN_POINT('Origin',(630.,181.85,0.));
#1495=CARTESIAN_POINT('',(630.,183.85,0.));
#1496=CARTESIAN_POINT('Origin',(632.,183.85,0.));
#1497=CARTESIAN_POINT('',(419.9,183.85,0.));
#1498=CARTESIAN_POINT('Origin',(419.9,181.85,0.));
#1499=CARTESIAN_POINT('Origin',(447.9,155.85,0.));
#1500=CARTESIAN_POINT('',(447.9,155.85,0.));
#1501=CARTESIAN_POINT('',(447.9,43.1499999999999,0.));
#1502=CARTESIAN_POINT('Origin',(602.,155.85,0.));
#1503=CARTESIAN_POINT('',(602.,155.85,0.));
#1504=CARTESIAN_POINT('Origin',(602.,43.15,0.));
#1505=CARTESIAN_POINT('',(602.,43.1499999999999,0.));
#1506=CARTESIAN_POINT('Origin',(447.9,43.1499999999999,0.));
#1507=CARTESIAN_POINT('Origin',(627.,178.85,0.));
#1508=CARTESIAN_POINT('Origin',(398.5,-2.5,0.));
#1509=CARTESIAN_POINT('',(398.5,-2.5,3.5));
#1510=CARTESIAN_POINT('',(398.5,-2.5,0.));
#1511=CARTESIAN_POINT('',(394.5,-2.5,3.5));
#1512=CARTESIAN_POINT('',(394.5,-2.5,3.5));
#1513=CARTESIAN_POINT('',(394.5,-2.5,0.));
#1514=CARTESIAN_POINT('Origin',(398.5,-6.49999999999999,0.));
#1515=CARTESIAN_POINT('',(398.5,-6.49999999999999,3.5));
#1516=CARTESIAN_POINT('',(398.5,-6.49999999999999,0.));
#1517=CARTESIAN_POINT('',(398.5,-2.5,3.5));
#1518=CARTESIAN_POINT('Origin',(394.5,-6.49999999999999,0.));
#1519=CARTESIAN_POINT('',(394.5,-6.49999999999999,3.5));
#1520=CARTESIAN_POINT('',(394.5,-6.49999999999999,0.));
#1521=CARTESIAN_POINT('',(398.5,-6.49999999999999,3.5));
#1522=CARTESIAN_POINT('Origin',(394.5,-2.5,0.));
#1523=CARTESIAN_POINT('',(394.5,-6.49999999999999,3.5));
#1524=CARTESIAN_POINT('Origin',(396.5,-4.49999999999999,3.5));
#1525=CARTESIAN_POINT('Origin',(623.,201.5,0.));
#1526=CARTESIAN_POINT('',(623.,201.5,3.5));
#1527=CARTESIAN_POINT('',(623.,201.5,0.));
#1528=CARTESIAN_POINT('',(627.,201.5,3.5));
#1529=CARTESIAN_POINT('',(627.,201.5,3.5));
#1530=CARTESIAN_POINT('',(627.,201.5,0.));
#1531=CARTESIAN_POINT('Origin',(623.,205.5,0.));
#1532=CARTESIAN_POINT('',(623.,205.5,3.5));
#1533=CARTESIAN_POINT('',(623.,205.5,0.));
#1534=CARTESIAN_POINT('',(623.,201.5,3.5));
#1535=CARTESIAN_POINT('Origin',(627.,205.5,0.));
#1536=CARTESIAN_POINT('',(627.,205.5,3.5));
#1537=CARTESIAN_POINT('',(627.,205.5,0.));
#1538=CARTESIAN_POINT('',(623.,205.5,3.5));
#1539=CARTESIAN_POINT('Origin',(627.,201.5,0.));
#1540=CARTESIAN_POINT('',(627.,205.5,3.5));
#1541=CARTESIAN_POINT('Origin',(625.,203.5,3.5));
#1542=CARTESIAN_POINT('Origin',(627.,-6.49999999999608,0.));
#1543=CARTESIAN_POINT('',(627.,-6.49999999999608,3.5));
#1544=CARTESIAN_POINT('',(627.,-6.49999999999608,0.));
#1545=CARTESIAN_POINT('',(627.,-2.49999999999609,3.5));
#1546=CARTESIAN_POINT('',(627.,-2.49999999999609,3.5));
#1547=CARTESIAN_POINT('',(627.,-2.49999999999609,0.));
#1548=CARTESIAN_POINT('Origin',(623.,-6.49999999999608,0.));
#1549=CARTESIAN_POINT('',(623.,-6.49999999999608,3.5));
#1550=CARTESIAN_POINT('',(623.,-6.49999999999608,0.));
#1551=CARTESIAN_POINT('',(627.,-6.49999999999608,3.5));
#1552=CARTESIAN_POINT('Origin',(623.,-2.49999999999609,0.));
#1553=CARTESIAN_POINT('',(623.,-2.49999999999609,3.5));
#1554=CARTESIAN_POINT('',(623.,-2.49999999999609,0.));
#1555=CARTESIAN_POINT('',(623.,-6.49999999999608,3.5));
#1556=CARTESIAN_POINT('Origin',(627.,-2.49999999999609,0.));
#1557=CARTESIAN_POINT('',(623.,-2.49999999999609,3.5));
#1558=CARTESIAN_POINT('Origin',(625.,-4.49999999999608,3.5));
#1559=CARTESIAN_POINT('Origin',(394.5,201.5,0.));
#1560=CARTESIAN_POINT('',(394.5,201.5,3.5));
#1561=CARTESIAN_POINT('',(394.5,201.5,0.));
#1562=CARTESIAN_POINT('',(398.5,201.5,3.5));
#1563=CARTESIAN_POINT('',(398.5,201.5,3.5));
#1564=CARTESIAN_POINT('',(398.5,201.5,0.));
#1565=CARTESIAN_POINT('Origin',(394.5,205.5,0.));
#1566=CARTESIAN_POINT('',(394.5,205.5,3.5));
#1567=CARTESIAN_POINT('',(394.5,205.5,0.));
#1568=CARTESIAN_POINT('',(394.5,201.5,3.5));
#1569=CARTESIAN_POINT('Origin',(398.5,205.5,0.));
#1570=CARTESIAN_POINT('',(398.5,205.5,3.5));
#1571=CARTESIAN_POINT('',(398.5,205.5,0.));
#1572=CARTESIAN_POINT('',(394.5,205.5,3.5));
#1573=CARTESIAN_POINT('Origin',(398.5,201.5,0.));
#1574=CARTESIAN_POINT('',(398.5,205.5,3.5));
#1575=CARTESIAN_POINT('Origin',(396.5,203.5,3.5));
#1576=CARTESIAN_POINT('Origin',(632.,207.,0.));
#1577=CARTESIAN_POINT('Origin',(393.,-7.99999999999997,0.));
#1578=UNCERTAINTY_MEASURE_WITH_UNIT(LENGTH_MEASURE(0.01),#1582,
'DISTANCE_ACCURACY_VALUE',
'Maximum model space distance between geometric entities at asserted c
onnectivities');
#1579=UNCERTAINTY_MEASURE_WITH_UNIT(LENGTH_MEASURE(0.01),#1582,
'DISTANCE_ACCURACY_VALUE',
'Maximum model space distance between geometric entities at asserted c
onnectivities');
#1580=(
GEOMETRIC_REPRESENTATION_CONTEXT(3)
GLOBAL_UNCERTAINTY_ASSIGNED_CONTEXT((#1578))
GLOBAL_UNIT_ASSIGNED_CONTEXT((#1582,#1584,#1585))
REPRESENTATION_CONTEXT('','3D')
);
#1581=(
GEOMETRIC_REPRESENTATION_CONTEXT(3)
GLOBAL_UNCERTAINTY_ASSIGNED_CONTEXT((#1579))
GLOBAL_UNIT_ASSIGNED_CONTEXT((#1582,#1584,#1585))
REPRESENTATION_CONTEXT('','3D')
);
#1582=(
LENGTH_UNIT()
NAMED_UNIT(*)
SI_UNIT(.MILLI.,.METRE.)
);
#1583=(
LENGTH_UNIT()
NAMED_UNIT(*)
SI_UNIT($,.METRE.)
);
#1584=(
NAMED_UNIT(*)
PLANE_ANGLE_UNIT()
SI_UNIT($,.RADIAN.)
);
#1585=(
NAMED_UNIT(*)
SI_UNIT($,.STERADIAN.)
SOLID_ANGLE_UNIT()
);
#1586=SHAPE_DEFINITION_REPRESENTATION(#1587,#1588);
#1587=PRODUCT_DEFINITION_SHAPE('',$,#1590);
#1588=SHAPE_REPRESENTATION('',(#970),#1580);
#1589=PRODUCT_DEFINITION_CONTEXT('part definition',#1594,'design');
#1590=PRODUCT_DEFINITION('lid','uv outer base v3',#1591,#1589);
#1591=PRODUCT_DEFINITION_FORMATION('',$,#1596);
#1592=PRODUCT_RELATED_PRODUCT_CATEGORY('uv outer base v3',
'uv outer base v3',(#1596));
#1593=APPLICATION_PROTOCOL_DEFINITION('international standard',
'automotive_design',2009,#1594);
#1594=APPLICATION_CONTEXT(
'Core Data for Automotive Mechanical Design Process');
#1595=PRODUCT_CONTEXT('part definition',#1594,'mechanical');
#1596=PRODUCT('lid','uv outer base v3',$,(#1595));
#1597=PRESENTATION_STYLE_ASSIGNMENT((#1599));
#1598=PRESENTATION_STYLE_ASSIGNMENT((#1600));
#1599=SURFACE_STYLE_USAGE(.BOTH.,#1601);
#1600=SURFACE_STYLE_USAGE(.BOTH.,#1602);
#1601=SURFACE_SIDE_STYLE('',(#1603));
#1602=SURFACE_SIDE_STYLE('',(#1604));
#1603=SURFACE_STYLE_FILL_AREA(#1605);
#1604=SURFACE_STYLE_FILL_AREA(#1606);
#1605=FILL_AREA_STYLE('Steel - Satin',(#1607));
#1606=FILL_AREA_STYLE('Paint - Enamel Glossy (Red)',(#1608));
#1607=FILL_AREA_STYLE_COLOUR('Steel - Satin',#1609);
#1608=FILL_AREA_STYLE_COLOUR('Paint - Enamel Glossy (Red)',#1610);
#1609=COLOUR_RGB('Steel - Satin',0.627450980392157,0.627450980392157,0.627450980392157);
#1610=COLOUR_RGB('Paint - Enamel Glossy (Red)',0.768627450980392,0.207843137254902,
0.152941176470588);
ENDSEC;
END-ISO-10303-21;
